<?xml version="1.0" encoding="UTF-8" standalone="no"?>
<svg
   xmlns:dc="http://purl.org/dc/elements/1.1/"
   xmlns:cc="http://creativecommons.org/ns#"
   xmlns:rdf="http://www.w3.org/1999/02/22-rdf-syntax-ns#"
   xmlns:svg="http://www.w3.org/2000/svg"
   xmlns="http://www.w3.org/2000/svg"
   xmlns:sodipodi="http://sodipodi.sourceforge.net/DTD/sodipodi-0.dtd"
   xmlns:inkscape="http://www.inkscape.org/namespaces/inkscape"
   width="240"
   height="234.39763"
   viewBox="0 0 63.5 62.017704"
   version="1.1"
   id="svg156"
   inkscape:version="1.0.2-2 (e86c870879, 2021-01-15)"
   sodipodi:docname="psicopedagogico.svg">
  <defs
     id="defs150">
    <filter
       inkscape:collect="always"
       style="color-interpolation-filters:sRGB"
       id="filter1058"
       x="-1.5233435e-06"
       width="1.000003"
       y="-1.5597531e-06"
       height="1.0000031">
      <feGaussianBlur
         inkscape:collect="always"
         stdDeviation="2.594733e-05"
         id="feGaussianBlur1060" />
    </filter>
  </defs>
  <sodipodi:namedview
     id="base"
     pagecolor="#ffffff"
     bordercolor="#666666"
     borderopacity="1.0"
     inkscape:pageopacity="0.0"
     inkscape:pageshadow="2"
     inkscape:zoom="1.5155655"
     inkscape:cx="152.22807"
     inkscape:cy="177.03147"
     inkscape:document-units="mm"
     inkscape:current-layer="layer1"
     inkscape:document-rotation="0"
     showgrid="false"
     inkscape:window-width="1343"
     inkscape:window-height="1020"
     inkscape:window-x="224"
     inkscape:window-y="0"
     inkscape:window-maximized="0"
     showguides="false"
     units="px" />
  <metadata
     id="metadata153">
    <rdf:RDF>
      <cc:Work
         rdf:about="">
        <dc:format>image/svg+xml</dc:format>
        <dc:type
           rdf:resource="http://purl.org/dc/dcmitype/StillImage" />
        <dc:title></dc:title>
      </cc:Work>
    </rdf:RDF>
  </metadata>
  <g
     inkscape:label="Aros"
     inkscape:groupmode="layer"
     id="layer1"
     style="display:inline"
     transform="translate(-58.935254,-81.335121)">
    <path
       d="m 306.0445,250.3205 c 8.7106,0 16.2136,5.1664 19.6141,12.6022 -6.2142,-1.9408 -12.8231,-2.9877 -19.6767,-2.9877 -6.8001,0 -13.3589,1.0304 -19.5305,2.9424 3.4101,-7.4109 10.9001,-12.5569 19.5931,-12.5569 z"
       style="fill:none;stroke:#c78f07;stroke-width:1.3;stroke-linecap:butt;stroke-linejoin:miter;stroke-dasharray:none;filter:url(#filter1058)"
       id="path833-7"
       transform="matrix(0.41098883,0,0,0.41098883,-35.077364,-21.5438)" />
    <path
       d="m 317.886,251.299 c 10.5292,0 19.2937,7.5495 21.1801,17.5306 -9.7242,-5.654 -21.0254,-8.8946 -33.0842,-8.8946 -1.8604,0 -3.7018,0.0811 -5.5233,0.2322 3.9203,-5.3748 10.2653,-8.8682 17.4274,-8.8682 z"
       style="fill:none;stroke:#c78f07;stroke-width:1.3;stroke-linecap:butt;stroke-linejoin:miter;stroke-dasharray:none;filter:url(#filter1058)"
       id="path835-5"
       transform="matrix(0.41098883,0,0,0.41098883,-35.077364,-21.5438)" />
    <path
       d="m 333.0547,257.171 c 11.9058,0 21.5575,9.6516 21.5575,21.5577 0,0.8368 -0.0493,1.6617 -0.142,2.4735 -8.9927,-9.7599 -20.8939,-16.7955 -34.3282,-19.7373 3.5995,-2.6966 8.0694,-4.2939 12.9127,-4.2939 z"
       style="fill:none;stroke:#c78f07;stroke-width:1.3;stroke-linecap:butt;stroke-linejoin:miter;stroke-dasharray:none;filter:url(#filter1058)"
       id="path837-9"
       transform="matrix(0.41098883,0,0,0.41098883,-35.077364,-21.5438)" />
    <path
       d="m 345.3854,266.1744 c 11.9058,0 21.5575,9.6516 21.5575,21.5577 0,3.1507 -0.6763,6.143 -1.891,8.841 -6.0789,-12.2391 -15.8476,-22.3206 -27.8518,-28.7889 2.524,-1.037 5.2875,-1.6098 8.1853,-1.6098 z"
       style="fill:none;stroke:#c78f07;stroke-width:1.3;stroke-linecap:butt;stroke-linejoin:miter;stroke-dasharray:none;filter:url(#filter1058)"
       id="path839-1"
       transform="matrix(0.41098883,0,0,0.41098883,-35.077364,-21.5438)" />
    <path
       d="m 353.1166,275.4714 c 11.9058,0 21.5575,9.6517 21.5575,21.5578 0,5.0298 -1.7226,9.6571 -4.61,13.3245 -3.287,-13.6369 -10.8116,-25.6209 -21.1039,-34.4803 1.345,-0.2628 2.7343,-0.402 4.1564,-0.402 z"
       style="fill:none;stroke:#c78f07;stroke-width:1.3;stroke-linecap:butt;stroke-linejoin:miter;stroke-dasharray:none;filter:url(#filter1058)"
       id="path841-6"
       transform="matrix(0.41098883,0,0,0.41098883,-35.077364,-21.5438)" />
    <path
       d="m 290.6427,252.3348 c 6.5883,0 12.4855,2.9565 16.4399,7.6141 -0.3666,-0.006 -0.7328,-0.0139 -1.1007,-0.0139 -13.5927,0 -26.2236,4.1156 -36.7175,11.1665 1.3686,-10.5876 10.4182,-18.7667 21.3783,-18.7667 z"
       style="fill:none;stroke:#c78f07;stroke-width:1.3;stroke-linecap:butt;stroke-linejoin:miter;stroke-dasharray:none;filter:url(#filter1058)"
       id="path843-5"
       transform="matrix(0.41098883,0,0,0.41098883,-35.077364,-21.5438)" />
    <path
       d="m 275.9632,258.8916 c 4.3923,0 8.4768,1.3147 11.884,3.5705 -13.1834,3.7641 -24.6759,11.5316 -33.0863,21.901 -0.2327,-1.2693 -0.3554,-2.5772 -0.3554,-3.9137 0,-11.9061 9.6517,-21.5578 21.5577,-21.5578 z"
       style="fill:none;stroke:#c78f07;stroke-width:1.3;stroke-linecap:butt;stroke-linejoin:miter;stroke-dasharray:none;filter:url(#filter1058)"
       id="path845-4"
       transform="matrix(0.41098883,0,0,0.41098883,-35.077364,-21.5438)" />
    <path
       d="m 267.1554,265.9377 c 2.8701,0 5.6084,0.5624 8.1128,1.5803 -11.9959,6.3289 -21.8052,16.2462 -27.9941,28.3257 -1.0795,-2.5679 -1.6764,-5.3883 -1.6764,-8.3483 0,-11.906 9.6517,-21.5577 21.5577,-21.5577 z"
       style="fill:none;stroke:#c78f07;stroke-width:1.3;stroke-linecap:butt;stroke-linejoin:miter;stroke-dasharray:none;filter:url(#filter1058)"
       id="path847-3"
       transform="matrix(0.41098883,0,0,0.41098883,-35.077364,-21.5438)" />
    <path
       d="m 233.231,349.547 c -4.294,-9.4627 -1.1824,-20.3993 6.887,-26.2996 -0.0337,0.8654 -0.0561,1.734 -0.0561,2.6076 0,13.3954 3.9994,25.8551 10.8638,36.2574 -7.4705,-0.6809 -14.3734,-5.2458 -17.6947,-12.5654 z"
       style="fill:none;stroke:#c78f07;stroke-width:1.3;stroke-linecap:butt;stroke-linejoin:miter;stroke-dasharray:none;filter:url(#filter1058)"
       id="path849-9"
       transform="matrix(0.41098883,0,0,0.41098883,-35.077364,-21.5438)" />
    <path
       d="m 230.6792,334.7504 c -4.9198,-10.8417 -0.1185,-23.6191 10.7235,-28.5389 0.6205,-0.2815 1.2478,-0.5295 1.8791,-0.7484 -2.0872,6.4216 -3.2199,13.2741 -3.2199,20.3919 0,7.1073 1.1296,13.9499 3.2108,20.3635 -5.3972,-1.8652 -10.0477,-5.8575 -12.5935,-11.4681 z"
       style="fill:none;stroke:#c78f07;stroke-width:1.3;stroke-linecap:butt;stroke-linejoin:miter;stroke-dasharray:none;filter:url(#filter1058)"
       id="path851-3"
       transform="matrix(0.41098883,0,0,0.41098883,-35.077364,-21.5438)" />
    <path
       d="m 232.1357,323.7137 c -4.9196,-10.842 -0.1188,-23.6191 10.7234,-28.5389 1.8561,-0.8422 3.769,-1.3992 5.6894,-1.6903 -5.4011,9.5621 -8.4866,20.6053 -8.4866,32.3705 0,2.4721 0.1409,4.9113 0.4059,7.3128 -3.5379,-2.1725 -6.4874,-5.3887 -8.3321,-9.4541 z"
       style="fill:none;stroke:#c78f07;stroke-width:1.3;stroke-linecap:butt;stroke-linejoin:miter;stroke-dasharray:none;filter:url(#filter1058)"
       id="path853-2"
       transform="matrix(0.41098883,0,0,0.41098883,-35.077364,-21.5438)" />
    <path
       d="m 238.0056,308.954 c -4.9192,-10.8417 -0.1182,-23.6191 10.7235,-28.5389 3.6652,-1.6631 7.5509,-2.2136 11.2802,-1.7972 -9.5987,9.343 -16.3596,21.5852 -18.8688,35.3132 -1.2388,-1.4735 -2.3003,-3.138 -3.1349,-4.9771 z"
       style="fill:none;stroke:#c78f07;stroke-width:1.3;stroke-linecap:butt;stroke-linejoin:miter;stroke-dasharray:none;filter:url(#filter1058)"
       id="path855-9"
       transform="matrix(0.41098883,0,0,0.41098883,-35.077364,-21.5438)" />
    <path
       d="m 239.8884,363.8392 c -3.3276,-7.3329 -2.2073,-15.5505 2.2207,-21.6243 3.4324,13.4416 10.9984,25.2275 21.2607,33.9315 -9.4969,1.7306 -19.3116,-3.1178 -23.4814,-12.3072 z"
       style="fill:none;stroke:#c78f07;stroke-width:1.3;stroke-linecap:butt;stroke-linejoin:miter;stroke-dasharray:none;filter:url(#filter1058)"
       id="path857-5"
       transform="matrix(0.41098883,0,0,0.41098883,-35.077364,-21.5438)" />
    <path
       d="m 246.8801,372.7477 c -2.6609,-5.864 -2.4767,-12.2933 -0.0326,-17.7401 6.0434,12.2352 15.7694,22.3265 27.7324,28.8213 -10.6537,4.3098 -22.9065,-0.5179 -27.6998,-11.0812 z"
       style="fill:none;stroke:#c78f07;stroke-width:1.3;stroke-linecap:butt;stroke-linejoin:miter;stroke-dasharray:none;filter:url(#filter1058)"
       id="path859-3"
       transform="matrix(0.41098883,0,0,0.41098883,-35.077364,-21.5438)" />
    <path
       d="m 259.6127,381.666 c -1.6007,-3.5274 -2.1716,-7.2598 -1.8408,-10.8595 8.9654,9.6112 20.7697,16.5362 34.0767,19.4446 -1.1378,0.818 -2.3717,1.5372 -3.6967,2.1384 -10.8422,4.9198 -23.6196,0.1185 -28.5392,-10.7235 z"
       style="fill:none;stroke:#c78f07;stroke-width:1.3;stroke-linecap:butt;stroke-linejoin:miter;stroke-dasharray:none;filter:url(#filter1058)"
       id="path861-2"
       transform="matrix(0.41098883,0,0,0.41098883,-35.077364,-21.5438)" />
    <path
       d="m 274.4385,387.4317 c -0.6701,-1.4768 -1.1588,-2.9897 -1.4774,-4.5136 9.7098,5.631 20.9883,8.8569 33.0208,8.8569 1.7696,0 3.5226,-0.0718 5.2571,-0.2087 -2.0937,2.7613 -4.8841,5.0565 -8.2613,6.5889 -10.8422,4.9198 -23.6197,0.1185 -28.5392,-10.7235 z"
       style="fill:none;stroke:#c78f07;stroke-width:1.3;stroke-linecap:butt;stroke-linejoin:miter;stroke-dasharray:none;filter:url(#filter1058)"
       id="path863-6"
       transform="matrix(0.41098883,0,0,0.41098883,-35.077364,-21.5438)" />
    <path
       d="m 325.5199,388.8306 c -2.1019,4.4748 -5.7441,8.2539 -10.599,10.457 -10.7453,4.8759 -23.3901,0.2024 -28.404,-10.4354 6.1526,1.8986 12.689,2.9228 19.465,2.9228 6.8025,0 13.3642,-1.031 19.538,-2.9444 z"
       style="fill:none;stroke:#c78f07;stroke-width:1.3;stroke-linecap:butt;stroke-linejoin:miter;stroke-dasharray:none;filter:url(#filter1058)"
       id="path865-6"
       transform="matrix(0.41098883,0,0,0.41098883,-35.077364,-21.5438)" />
    <path
       d="m 343.0412,380.3763 c -0.9358,7.1436 -5.4278,13.6562 -12.4711,16.8522 -8.8829,4.0309 -19.0644,1.535 -25.1594,-5.4609 0.1907,0.002 0.3801,0.007 0.5712,0.007 13.7409,0 26.4982,-4.2064 37.0593,-11.3987 z"
       style="fill:none;stroke:#c78f07;stroke-width:1.3;stroke-linecap:butt;stroke-linejoin:miter;stroke-dasharray:none;filter:url(#filter1058)"
       id="path867-7"
       transform="matrix(0.41098883,0,0,0.41098883,-35.077364,-21.5438)" />
    <path
       d="m 357.1724,367.3845 c 1.774,9.5225 -3.0755,19.3816 -12.2913,23.5636 -7.0231,3.1867 -14.8572,2.2935 -20.8425,-1.677 13.1995,-3.7522 24.7096,-11.5152 33.1338,-21.8866 z"
       style="fill:none;stroke:#c78f07;stroke-width:1.3;stroke-linecap:butt;stroke-linejoin:miter;stroke-dasharray:none;filter:url(#filter1058)"
       id="path869-9"
       transform="matrix(0.41098883,0,0,0.41098883,-35.077364,-21.5438)" />
    <path
       d="m 364.8617,355.5198 c 4.7599,10.7955 -0.0471,23.4366 -10.8173,28.3241 -5.6698,2.5727 -11.8687,2.4857 -17.1967,0.2679 12.0396,-6.3933 21.8625,-16.4064 28.014,-28.592 z"
       style="fill:none;stroke:#c78f07;stroke-width:1.3;stroke-linecap:butt;stroke-linejoin:miter;stroke-dasharray:none;filter:url(#filter1058)"
       id="path871-5"
       transform="matrix(0.41098883,0,0,0.41098883,-35.077364,-21.5438)" />
    <path
       d="m 370.804,337.8796 c 1.2356,1.4709 2.2938,3.1322 3.1266,4.9674 4.9195,10.8419 0.1185,23.6194 -10.7232,28.5392 -3.6848,1.6719 -7.5929,2.2201 -11.3403,1.7909 9.6208,-9.3311 16.4061,-21.5679 18.9369,-35.2975 z"
       style="fill:none;stroke:#c78f07;stroke-width:1.3;stroke-linecap:butt;stroke-linejoin:miter;stroke-dasharray:none;filter:url(#filter1058)"
       id="path873-7"
       transform="matrix(0.41098883,0,0,0.41098883,-35.077364,-21.5438)" />
    <path
       d="m 371.55,319.0161 c 3.5008,2.1614 6.4191,5.3422 8.2491,9.3561 4.9196,10.79 0.1185,23.506 -10.7231,28.4023 -1.8913,0.854 -3.8415,1.4127 -5.7986,1.6976 5.4873,-9.6182 8.6244,-20.751 8.6244,-32.6171 0,-2.3094 -0.1199,-4.5904 -0.3518,-6.8389 z"
       style="fill:none;stroke:#c78f07;stroke-width:1.3;stroke-linecap:butt;stroke-linejoin:miter;stroke-dasharray:none;filter:url(#filter1058)"
       id="path875-5"
       transform="matrix(0.41098883,0,0,0.41098883,-35.077364,-21.5438)" />
    <path
       d="m 369.1001,306.7965 c 5.2381,1.9089 9.7339,5.8255 12.221,11.2799 4.9195,10.7901 0.1185,23.5061 -10.7232,28.4023 -0.754,0.3405 -1.5177,0.6324 -2.2873,0.8808 2.3253,-6.7403 3.5912,-13.9743 3.5912,-21.5045 0,-6.6274 -0.9822,-13.0244 -2.8017,-19.0585 z"
       style="fill:none;stroke:#c78f07;stroke-width:1.3;stroke-linecap:butt;stroke-linejoin:miter;stroke-dasharray:none;filter:url(#filter1058)"
       id="path877-5"
       transform="matrix(0.41098883,0,0,0.41098883,-35.077364,-21.5438)" />
    <path
       d="m 361.1163,289.7167 c 7.6187,0.54 14.7033,5.004 18.0819,12.2354 4.371,9.3561 1.0678,20.1952 -7.3273,25.848 0.0187,-0.6463 0.0309,-1.2943 0.0309,-1.9451 0,-13.3444 -3.969,-25.7601 -10.7855,-36.1383 z"
       style="fill:none;stroke:#c78f07;stroke-width:1.3;stroke-linecap:butt;stroke-linejoin:miter;stroke-dasharray:none;filter:url(#filter1058)"
       id="path879-0"
       transform="matrix(0.41098883,0,0,0.41098883,-35.077364,-21.5438)" />
    <path
       d="m 305.9819,262.5092 c 34.9849,0 63.3458,28.3609 63.3458,63.3458 0,34.9849 -28.3609,63.3458 -63.3458,63.3458 -34.985,0 -63.3459,-28.3609 -63.3459,-63.3458 0,-34.9849 28.3609,-63.3458 63.3459,-63.3458 z m 0,-2.5742 c 36.4064,0 65.9199,29.5135 65.9199,65.92 0,36.4065 -29.5135,65.92 -65.9199,65.92 -36.4065,0 -65.92,-29.5135 -65.92,-65.92 0,-36.4065 29.5135,-65.92 65.92,-65.92 z"
       style="fill:#c78f07;fill-rule:evenodd;filter:url(#filter1058)"
       id="path881-3"
       transform="matrix(0.41098883,0,0,0.41098883,-35.077364,-21.5438)" />
  </g>
  <g
     inkscape:groupmode="layer"
     id="layer2"
     inkscape:label="Heraldica"
     style="display:inline"
     transform="translate(-58.935254,-81.335121)">
    <path
       d="m 332.6418,308.7491 c -0.1834,0.1617 -0.3359,0.3173 -0.4727,0.4634 -0.0653,0.0747 -0.1275,0.1462 -0.1866,0.2177 -0.0591,0.0715 -0.1151,0.14 -0.168,0.2084 -0.2083,0.2706 -0.3514,0.5256 -0.4883,0.7713 -0.0684,0.1213 -0.1306,0.2426 -0.2052,0.3608 -0.0747,0.1181 -0.1524,0.2333 -0.2395,0.3483 -0.1773,0.2301 -0.395,0.4541 -0.7029,0.6749 -0.2767,0.1928 -0.65,0.5536 -1.017,1.0699 -0.0218,0.0311 -0.0466,0.0653 -0.0684,0.0964 0.0249,-0.0591 0.0498,-0.1151 0.0747,-0.1742 0.059,-0.1337 0.1151,-0.2706 0.1742,-0.4043 0.1119,-0.2675 0.2269,-0.5256 0.3296,-0.7868 0.0995,-0.2613 0.1959,-0.5163 0.2924,-0.7652 0.0932,-0.2488 0.1897,-0.4913 0.2674,-0.7339 0.006,-0.0218 0.0125,-0.0436 0.0218,-0.0684 0.0498,-0.0778 0.0995,-0.1556 0.1461,-0.2239 0.1462,-0.2084 0.2862,-0.3639 0.423,-0.4883 0.283,-0.2427 0.5381,-0.3639 0.846,-0.5101 0.2519,-0.1244 0.4851,-0.2581 0.6904,-0.4106 0.2084,-0.1523 0.3981,-0.3265 0.5536,-0.5349 0.1524,-0.2083 0.2862,-0.4478 0.4012,-0.734 0.056,-0.143 0.1058,-0.2954 0.1524,-0.4603 0.0373,-0.1679 0.0716,-0.3483 0.1027,-0.5411 0.0528,-0.3919 0.1337,-0.6998 0.2208,-0.9455 0.0808,-0.2488 0.1648,-0.4385 0.2519,-0.5847 0.171,-0.2924 0.3265,-0.4167 0.3452,-0.5287 0.0404,-0.227 -0.7029,-0.1026 -1.2378,0.5629 -0.2582,0.3297 -0.451,0.6158 -0.5941,0.8802 -0.143,0.2644 -0.2394,0.5069 -0.3296,0.7402 -0.1897,0.4665 -0.3639,0.8988 -0.8118,1.3685 -0.2052,0.2083 -0.4727,0.5722 -0.7246,1.0698 0.1182,-0.4198 0.2364,-0.8118 0.3359,-1.1787 0.0933,-0.3794 0.1804,-0.7278 0.2612,-1.0419 0.0156,-0.0684 0.0311,-0.1337 0.0467,-0.1991 0.003,-0.003 0.003,-0.006 0.003,-0.006 0.1462,-0.3173 0.3048,-0.6625 0.4572,-0.9984 0.0777,-0.171 0.1586,-0.339 0.227,-0.5007 0.0685,-0.168 0.1337,-0.3266 0.1959,-0.4759 0.1245,-0.3016 0.224,-0.5691 0.2862,-0.7682 0.1119,-0.3794 0.1959,-0.7619 0.2768,-1.1289 0.0373,-0.1867 0.0778,-0.367 0.1057,-0.5443 0.0249,-0.1773 0.0467,-0.3483 0.0653,-0.5163 0.0374,-0.3328 0.0591,-0.6375 0.0591,-0.9113 -0.003,-0.2705 -0.0311,-0.5038 -0.0715,-0.6904 -0.0747,-0.3297 -0.1368,-0.6376 -0.2115,-0.9175 -0.0746,-0.2767 -0.1462,-0.5225 -0.2115,-0.7278 -0.1337,-0.4105 -0.2426,-0.6561 -0.3265,-0.6561 -0.0809,0 -0.2022,0.2456 -0.3453,0.6437 -0.0746,0.1991 -0.1555,0.4385 -0.2425,0.7029 -0.0871,0.2644 -0.196,0.5536 -0.3048,0.8584 -0.0591,0.1742 -0.1089,0.3919 -0.1462,0.65 -0.0436,0.255 -0.0809,0.5443 -0.1057,0.8615 -0.0125,0.1617 -0.0218,0.3266 -0.0281,0.4976 -0.006,0.1711 -0.0217,0.3452 -0.031,0.5225 -0.0187,0.3608 -0.0218,0.734 -0.028,1.1165 -0.006,0.1991 0.003,0.4728 0.0186,0.7869 0.006,0.1586 0.0187,0.3266 0.0249,0.5007 0.009,0.1742 0.009,0.3546 0.0155,0.5381 0.006,0.3638 0.0187,0.7371 0.009,1.0854 0,0 0,0.003 0,0.003 -0.0155,0.0622 -0.0311,0.1275 -0.0498,0.1928 -0.0746,0.3079 -0.1648,0.6532 -0.2612,1.0264 -0.0995,0.367 -0.224,0.7557 -0.3453,1.1756 0.053,-0.5536 0.028,-0.989 -0.0466,-1.2627 -0.1804,-0.622 -0.1213,-1.0543 -0.0933,-1.5302 0.0125,-0.2395 0.0187,-0.4883 -0.009,-0.7682 -0.0279,-0.283 -0.087,-0.5971 -0.2363,-0.9703 -0.2892,-0.7558 -0.961,-1.0544 -0.9952,-0.8615 -0.0156,0.0964 0.0933,0.2457 0.1648,0.5411 0.0342,0.1462 0.0591,0.3328 0.056,0.563 -0.0155,0.2332 -0.0591,0.51 -0.1586,0.849 -0.3919,1.3187 -0.1587,2.0682 0.4323,2.9982 0.1772,0.2799 0.3452,0.5225 0.4167,0.8708 0.0374,0.1772 0.056,0.3794 0.0467,0.6313 -0.003,0.084 -0.009,0.1742 -0.0187,0.2675 -0.006,0.0155 -0.0124,0.0311 -0.0155,0.0466 -0.0778,0.2395 -0.1742,0.4759 -0.2675,0.7216 -0.0964,0.2457 -0.1929,0.4976 -0.2924,0.7526 -0.1026,0.2582 -0.2208,0.5101 -0.3327,0.7745 -0.056,0.1306 -0.1151,0.2643 -0.1742,0.3981 -0.028,0.0653 -0.0591,0.1337 -0.0871,0.199 0.009,-0.0373 0.0156,-0.0777 0.0218,-0.1151 0.1244,-0.6189 0.1338,-1.1196 0.0591,-1.4431 -0.084,-0.3608 -0.0995,-0.6562 -0.084,-0.9299 0.006,-0.1337 0.0249,-0.2643 0.0436,-0.3919 0.0217,-0.1275 0.0341,-0.255 0.0528,-0.3856 0.0343,-0.2613 0.0653,-0.5318 0.056,-0.8459 -0.003,-0.0778 -0.006,-0.1587 -0.0156,-0.2427 -0.009,-0.0839 -0.0248,-0.1741 -0.0435,-0.2643 -0.0342,-0.1835 -0.0871,-0.3794 -0.1617,-0.5941 -0.2923,-0.8708 -1.1383,-1.3061 -1.1881,-1.0978 -0.0217,0.1027 0.1027,0.2799 0.1618,0.6096 0.0341,0.1648 0.0466,0.367 0.0186,0.6189 -0.0156,0.1244 -0.0311,0.2644 -0.0777,0.4106 -0.0436,0.1492 -0.1027,0.3078 -0.1773,0.482 -0.5971,1.3622 -0.3701,2.2175 0.2955,3.3714 0.0995,0.1741 0.1928,0.3358 0.2736,0.5069 0.0747,0.1679 0.1338,0.3452 0.1649,0.5474 0.0311,0.2052 0.0373,0.4385 0.006,0.7184 -0.0155,0.1275 -0.0405,0.2612 -0.0746,0.4043 -0.084,0.1617 -0.168,0.3204 -0.2582,0.4821 -0.0746,0.1368 -0.1524,0.2768 -0.227,0.4168 -0.0778,0.143 -0.1524,0.2829 -0.2395,0.4229 -0.1679,0.2768 -0.3359,0.5567 -0.5069,0.8397 -0.0809,0.1431 -0.1742,0.283 -0.2675,0.423 -0.0187,0.0249 -0.0373,0.0529 -0.056,0.0777 0.006,-0.009 0.009,-0.0186 0.0156,-0.0311 0.0528,-0.1462 0.1057,-0.283 0.1399,-0.4198 0.0342,-0.1369 0.0622,-0.2643 0.084,-0.3857 0.0373,-0.2395 0.0529,-0.4447 0.0404,-0.6096 -0.0124,-0.1834 -0.006,-0.3452 0.003,-0.5007 0.006,-0.1524 0.0249,-0.2954 0.0467,-0.4292 0.0497,-0.2675 0.1306,-0.5038 0.2053,-0.7526 0.0435,-0.1213 0.0715,-0.2551 0.1026,-0.3888 0.0249,-0.1399 0.0497,-0.283 0.0653,-0.4385 0.0279,-0.3141 0.0311,-0.6687 -0.0684,-1.1165 -0.1897,-0.905 -0.9518,-1.4369 -1.0326,-1.244 -0.0435,0.0963 0.0591,0.2861 0.0778,0.622 0.009,0.1679 0.006,0.3732 -0.0591,0.6126 -0.0653,0.2427 -0.1804,0.5226 -0.3732,0.8429 -0.0498,0.0809 -0.0933,0.1586 -0.1307,0.2332 -0.0435,0.0747 -0.084,0.1493 -0.1212,0.2209 -0.0716,0.1462 -0.1307,0.2861 -0.1773,0.4261 -0.0933,0.2736 -0.1213,0.5473 -0.1338,0.8054 -0.009,0.2613 0.028,0.5257 0.0964,0.8025 0.0343,0.1368 0.0778,0.2799 0.1276,0.4261 0.0248,0.0715 0.0528,0.1461 0.0777,0.2208 0.028,0.0746 0.056,0.1493 0.084,0.2239 0.143,0.3701 0.2705,0.6904 0.2799,1.1072 0.006,0.2892 -0.0591,0.6189 -0.2208,1.0357 -0.5848,0.8117 -1.2348,1.6047 -1.9376,2.3668 0.143,-0.2582 0.255,-0.4977 0.3327,-0.7123 0.0436,-0.112 0.0747,-0.2208 0.0934,-0.3203 0.0217,-0.1027 0.0373,-0.1928 0.0435,-0.2768 0.0311,-0.367 0.1026,-0.6531 0.1991,-0.902 0.0932,-0.2519 0.199,-0.482 0.311,-0.7152 0.056,-0.1182 0.1088,-0.2395 0.1617,-0.367 0.0497,-0.1276 0.0995,-0.2644 0.1337,-0.4168 0.0716,-0.3079 0.1151,-0.6656 0.0933,-1.1103 -0.003,-0.2239 -0.0653,-0.4416 -0.1399,-0.6283 -0.0746,-0.1866 -0.1711,-0.3452 -0.2675,-0.4727 -0.1928,-0.2519 -0.3856,-0.367 -0.4416,-0.2768 -0.0529,0.0902 0.0217,0.2923 0.003,0.6252 -0.0156,0.1648 -0.0622,0.3576 -0.1587,0.5877 -0.0466,0.112 -0.1088,0.2333 -0.1865,0.3639 -0.0809,0.1307 -0.1742,0.2675 -0.2986,0.4043 -0.2426,0.2737 -0.4199,0.5381 -0.5474,0.7962 -0.1306,0.2551 -0.2208,0.5007 -0.2643,0.762 -0.0436,0.255 -0.0405,0.5287 -0.0218,0.8086 0.0218,0.2768 0.0715,0.5723 0.1399,0.8957 0.1338,0.6469 0.2675,1.157 -0.2674,2.0589 -0.7184,0.6998 -1.4866,1.3684 -2.3015,1.978 0.0187,-0.0248 0.0404,-0.0466 0.0622,-0.0715 0.0436,-0.0591 0.084,-0.1182 0.1244,-0.1772 0.0778,-0.1151 0.1493,-0.224 0.2084,-0.3297 0.1213,-0.2115 0.2021,-0.4013 0.2488,-0.5567 0.0249,-0.0871 0.0498,-0.168 0.0777,-0.2457 0.028,-0.0809 0.056,-0.1555 0.0809,-0.2271 0.0591,-0.143 0.1213,-0.2674 0.1897,-0.3856 0.1338,-0.2333 0.2892,-0.423 0.4354,-0.6376 0.1431,-0.2146 0.2924,-0.4416 0.4168,-0.7247 0.0622,-0.143 0.1244,-0.2923 0.171,-0.4727 0.0405,-0.1804 0.0778,-0.3794 0.0996,-0.6002 0.0497,-0.451 -0.0654,-0.8584 -0.2177,-1.1383 -0.1524,-0.2799 -0.3266,-0.4261 -0.3888,-0.3453 -0.0653,0.0809 -0.028,0.2862 -0.1089,0.6034 -0.0404,0.1586 -0.1088,0.3421 -0.2363,0.5536 -0.0622,0.1058 -0.1431,0.2115 -0.2457,0.3203 -0.1026,0.1089 -0.2208,0.224 -0.3608,0.3422 -0.1399,0.115 -0.2581,0.2332 -0.3701,0.3452 -0.1119,0.1088 -0.2115,0.2177 -0.2986,0.3296 -0.171,0.224 -0.2923,0.4603 -0.3794,0.7061 -0.1835,0.4789 -0.2115,1.0263 -0.1866,1.6918 0.006,0.3919 0.0156,0.734 -0.1244,1.1259 -0.0342,0.0964 -0.0778,0.1959 -0.1338,0.3017 -0.0559,0.1026 -0.1212,0.2177 -0.2083,0.3265 -0.0405,0.0498 -0.0809,0.0996 -0.1275,0.1524 -0.8553,0.5598 -1.7479,1.0605 -2.6654,1.5053 0.1866,-0.1524 0.3452,-0.3017 0.4727,-0.4448 0.1587,-0.1834 0.2706,-0.3607 0.3453,-0.5069 0.1648,-0.3296 0.3358,-0.5629 0.5162,-0.7588 0.1742,-0.2084 0.3546,-0.3764 0.5412,-0.5537 0.3763,-0.339 0.7433,-0.7837 1.0108,-1.6172 0.2488,-0.8802 -0.1897,-1.7012 -0.3422,-1.5768 -0.0777,0.0653 -0.0715,0.2768 -0.2021,0.5785 -0.0591,0.1555 -0.168,0.311 -0.3328,0.4882 -0.084,0.0871 -0.1834,0.1773 -0.2985,0.2675 -0.0591,0.0467 -0.1182,0.0902 -0.1867,0.1369 -0.0684,0.0466 -0.1399,0.0933 -0.2208,0.1337 -0.3172,0.1617 -0.5691,0.3359 -0.7775,0.5287 -0.1026,0.0995 -0.1991,0.1897 -0.283,0.2893 -0.0871,0.0995 -0.1617,0.2021 -0.2271,0.314 -0.1337,0.2209 -0.2301,0.4666 -0.311,0.7403 -0.0839,0.2612 -0.1462,0.5536 -0.2021,0.877 -0.0715,0.3888 -0.1244,0.7371 -0.339,1.0917 -0.1089,0.171 -0.2581,0.3452 -0.4665,0.5318 -0.0311,0.0249 -0.0622,0.0529 -0.0933,0.0809 -0.1026,0.0435 -0.2177,0.0901 -0.3359,0.1399 -0.8522,0.3173 -1.7044,0.5816 -2.5565,0.8025 0.4292,-0.252 0.7402,-0.507 0.9144,-0.7154 0.227,-0.2923 0.4385,-0.4976 0.6531,-0.6562 0.1057,-0.0809 0.2114,-0.1524 0.3235,-0.2178 l 0.1617,-0.0963 c 0.0528,-0.0343 0.1057,-0.0716 0.1586,-0.1058 0.426,-0.2892 0.8988,-0.5909 1.3093,-1.3902 0.4292,-0.7838 0.1462,-1.6981 -0.0217,-1.5986 -0.084,0.0529 -0.1245,0.255 -0.3111,0.5162 -0.1897,0.252 -0.5225,0.591 -1.2191,0.7901 -0.168,0.0497 -0.3235,0.1088 -0.4665,0.171 -0.1431,0.0653 -0.2768,0.1182 -0.3981,0.1897 -0.2426,0.1368 -0.4448,0.3017 -0.6189,0.4977 -0.084,0.0995 -0.168,0.1959 -0.2427,0.3016 -0.0777,0.1057 -0.1461,0.2208 -0.2145,0.3452 -0.1337,0.2426 -0.2551,0.5194 -0.3764,0.8305 -0.143,0.3794 -0.2705,0.6872 -0.5535,0.989 -0.14,0.1493 -0.3204,0.2954 -0.563,0.4416 -0.0248,0.0124 -0.0529,0.028 -0.0809,0.0435 -0.0404,0.009 -0.087,0.0187 -0.1337,0.028 -0.084,0.0124 -0.1679,0.0249 -0.2519,0.0373 -0.1679,0.0249 -0.3359,0.0467 -0.5038,0.0716 -0.6656,0.115 -1.3218,0.1493 -1.9625,0.2052 -0.028,0.003 -0.0591,0.006 -0.0902,0.009 -0.0125,0 -0.0218,0 -0.0342,0.003 0.0311,-0.0125 0.0622,-0.0249 0.0933,-0.0374 0.1306,-0.0528 0.2519,-0.1057 0.3576,-0.1586 0.2208,-0.1088 0.392,-0.2208 0.5163,-0.3234 0.14,-0.1182 0.2675,-0.2084 0.395,-0.2924 0.1275,-0.0839 0.2519,-0.1555 0.3701,-0.2146 0.2426,-0.1212 0.479,-0.199 0.7216,-0.2861 0.0591,-0.0218 0.1213,-0.0435 0.1804,-0.0653 0.0621,-0.0249 0.1243,-0.056 0.1834,-0.084 0.1276,-0.0622 0.252,-0.1306 0.3826,-0.2146 0.1306,-0.084 0.2643,-0.1803 0.4012,-0.2985 0.1369,-0.1182 0.2799,-0.2519 0.4199,-0.4323 0.5722,-0.706 0.4883,-1.6298 0.3016,-1.5768 -0.0963,0.0248 -0.1741,0.2208 -0.4105,0.4447 -0.1182,0.1088 -0.2737,0.2394 -0.4976,0.3235 -0.2208,0.0932 -0.5038,0.1678 -0.8615,0.2114 -0.1742,0.0249 -0.3421,0.0373 -0.4976,0.0685 -0.1555,0.0248 -0.2986,0.0621 -0.4323,0.1088 -0.2644,0.0871 -0.5039,0.227 -0.6967,0.367 -0.4012,0.2892 -0.7153,0.734 -1.0854,1.2938 -0.2395,0.3297 -0.4354,0.6189 -0.7776,0.8646 -0.1617,0.1151 -0.3545,0.2208 -0.6002,0.3172 -0.2488,-0.0964 -0.4447,-0.2021 -0.6033,-0.3172 -0.3421,-0.2457 -0.5381,-0.5349 -0.7776,-0.8646 -0.367,-0.5598 -0.6842,-1.0046 -1.0823,-1.2938 -0.1959,-0.14 -0.4354,-0.2799 -0.6998,-0.367 -0.1337,-0.0467 -0.2767,-0.084 -0.4323,-0.1088 -0.1554,-0.0312 -0.3203,-0.0436 -0.4976,-0.0685 -0.3576,-0.0436 -0.6407,-0.1182 -0.8615,-0.2114 -0.2239,-0.0841 -0.3763,-0.2147 -0.4976,-0.3235 -0.2363,-0.2239 -0.311,-0.4199 -0.4105,-0.4447 -0.1867,-0.053 -0.2675,0.8708 0.3048,1.5768 0.1399,0.1804 0.2799,0.3141 0.4167,0.4323 0.1369,0.1182 0.2706,0.2145 0.4043,0.2985 0.1276,0.084 0.255,0.1524 0.3795,0.2146 0.0622,0.028 0.1213,0.0591 0.1834,0.084 0.0622,0.0218 0.1213,0.0435 0.1836,0.0653 0.2395,0.0871 0.4758,0.1649 0.7184,0.2861 0.1181,0.0591 0.2426,0.1307 0.3701,0.2146 0.1244,0.084 0.255,0.1742 0.395,0.2924 0.1244,0.1026 0.2954,0.2146 0.5132,0.3234 0.1088,0.0529 0.2301,0.1058 0.3607,0.1586 0.0311,0.0125 0.0622,0.0249 0.0933,0.0374 -0.009,-0.003 -0.0218,-0.003 -0.0342,-0.003 h -0.009 c -0.3204,-0.0279 -0.6438,-0.0559 -0.9704,-0.0839 -0.0809,-0.006 -0.1648,-0.0124 -0.2488,-0.0187 -0.0249,-0.003 -0.0529,-0.006 -0.0808,-0.006 -0.0343,-0.006 -0.0654,-0.009 -0.0995,-0.0125 -0.0219,-0.003 -0.0436,-0.006 -0.0654,-0.009 -0.1648,-0.0248 -0.3297,-0.0466 -0.4976,-0.0715 -0.1648,-0.0249 -0.3328,-0.0467 -0.5007,-0.0715 -0.1587,-0.0249 -0.3141,-0.0435 -0.4727,-0.0778 -0.025,-0.0155 -0.0498,-0.028 -0.0778,-0.0435 -0.2426,-0.1462 -0.423,-0.2923 -0.5629,-0.4416 -0.2831,-0.3018 -0.4106,-0.6096 -0.5536,-0.989 -0.1213,-0.3111 -0.2426,-0.5879 -0.3764,-0.8305 -0.0684,-0.1244 -0.1368,-0.2395 -0.2146,-0.3452 -0.0746,-0.1057 -0.1586,-0.2021 -0.2425,-0.3016 -0.1742,-0.196 -0.3764,-0.3609 -0.6189,-0.4977 -0.1214,-0.0715 -0.2582,-0.1244 -0.4013,-0.1897 -0.1399,-0.0622 -0.2923,-0.1213 -0.4634,-0.171 -0.6966,-0.1991 -1.0294,-0.5381 -1.2191,-0.7901 -0.1866,-0.2612 -0.2271,-0.4633 -0.311,-0.5162 -0.168,-0.0995 -0.4479,0.8148 -0.0218,1.5986 0.4105,0.7993 0.8833,1.101 1.3094,1.3902 0.0528,0.0342 0.1057,0.0715 0.1586,0.1058 l 0.1617,0.0963 c 0.1089,0.0654 0.2177,0.1369 0.3234,0.2178 0.2147,0.1586 0.4261,0.3639 0.6532,0.6562 0.1741,0.2084 0.482,0.4634 0.9112,0.7122 -0.8242,-0.2115 -1.6515,-0.4634 -2.4725,-0.7682 -0.1524,-0.0622 -0.2924,-0.1182 -0.4168,-0.1741 -0.0311,-0.0249 -0.0622,-0.0529 -0.0933,-0.0778 -0.2084,-0.1866 -0.3577,-0.3608 -0.4665,-0.5318 -0.2146,-0.3546 -0.2674,-0.7029 -0.339,-1.0917 -0.056,-0.3234 -0.1181,-0.6158 -0.2022,-0.877 -0.0777,-0.2737 -0.1772,-0.5194 -0.311,-0.7403 -0.0652,-0.1119 -0.1399,-0.2145 -0.2239,-0.314 -0.0871,-0.0996 -0.1835,-0.1898 -0.283,-0.2893 -0.2084,-0.1928 -0.4634,-0.367 -0.7806,-0.5287 -0.0778,-0.0404 -0.1524,-0.0871 -0.2208,-0.1337 -0.0685,-0.0467 -0.1276,-0.0902 -0.1867,-0.1369 -0.1182,-0.0902 -0.2145,-0.1804 -0.2954,-0.2675 -0.168,-0.1772 -0.2768,-0.3327 -0.3359,-0.4882 -0.1306,-0.3017 -0.1244,-0.5132 -0.2022,-0.5785 -0.1523,-0.1244 -0.5878,0.6966 -0.3452,1.5768 0.2706,0.8335 0.6407,1.2782 1.017,1.6172 0.1835,0.1773 0.367,0.3453 0.5412,0.5537 0.1772,0.1959 0.3483,0.4292 0.5132,0.7588 0.0746,0.1462 0.1834,0.3235 0.3451,0.5069 0.1276,0.14 0.2831,0.2893 0.4635,0.4386 -0.9082,-0.4386 -1.7976,-0.9393 -2.6529,-1.4959 -0.0467,-0.053 -0.0902,-0.1058 -0.1307,-0.1556 -0.0871,-0.1088 -0.1523,-0.2239 -0.2083,-0.3265 -0.0561,-0.1058 -0.0996,-0.2053 -0.1338,-0.3017 -0.1399,-0.3919 -0.1306,-0.734 -0.1244,-1.1259 0.0249,-0.6655 -0.003,-1.2129 -0.1866,-1.6918 -0.0871,-0.2458 -0.2083,-0.4821 -0.3795,-0.7061 -0.087,-0.1119 -0.1865,-0.2208 -0.3016,-0.3296 -0.1089,-0.112 -0.2271,-0.2302 -0.367,-0.3452 -0.14,-0.1182 -0.2581,-0.2333 -0.3608,-0.3422 -0.0995,-0.1088 -0.1835,-0.2145 -0.2456,-0.3203 -0.1276,-0.2115 -0.196,-0.395 -0.2395,-0.5536 -0.0778,-0.3172 -0.0405,-0.5225 -0.1058,-0.6034 -0.0622,-0.0808 -0.2395,0.0654 -0.3888,0.3453 -0.1523,0.2799 -0.2674,0.6873 -0.2208,1.1383 0.0249,0.2208 0.0591,0.4198 0.1058,0.6002 0.0466,0.1804 0.1057,0.3297 0.168,0.4727 0.1274,0.2831 0.2736,0.5101 0.4167,0.7247 0.1462,0.2146 0.3048,0.4043 0.4354,0.6376 0.0684,0.1182 0.1306,0.2426 0.1897,0.3856 0.028,0.0716 0.056,0.1462 0.0809,0.2271 0.028,0.0777 0.0528,0.1586 0.0777,0.2457 0.0466,0.1554 0.1276,0.3452 0.2488,0.5567 0.0591,0.1057 0.1307,0.2146 0.2084,0.3297 0.0405,0.059 0.0809,0.1181 0.1275,0.1772 0.0187,0.0249 0.0404,0.0498 0.0622,0.0715 -0.0373,-0.0248 -0.0746,-0.0497 -0.1088,-0.0777 -0.2893,-0.2301 -0.5754,-0.4603 -0.8646,-0.6936 -0.1462,-0.1088 -0.28,-0.2363 -0.4137,-0.3576 -0.1368,-0.1244 -0.2737,-0.2457 -0.4105,-0.367 -0.1338,-0.1244 -0.2768,-0.2395 -0.4043,-0.3701 -0.0311,-0.0342 -0.0622,-0.0653 -0.0965,-0.0964 -0.5411,-0.9113 -0.4073,-1.4245 -0.2736,-2.0745 0.0715,-0.3234 0.1213,-0.6189 0.1399,-0.8957 0.0187,-0.2799 0.0218,-0.5536 -0.0249,-0.8086 -0.0404,-0.2613 -0.1275,-0.5069 -0.2612,-0.762 -0.1275,-0.2581 -0.3048,-0.5225 -0.5474,-0.7962 -0.1244,-0.1368 -0.2177,-0.2736 -0.2954,-0.4043 -0.0809,-0.1306 -0.14,-0.2519 -0.1928,-0.3639 -0.0934,-0.2301 -0.14,-0.4229 -0.1525,-0.5877 -0.0248,-0.3329 0.0529,-0.535 0,-0.6252 -0.0528,-0.0902 -0.2519,0.0249 -0.4416,0.2768 -0.0964,0.1275 -0.1928,0.2861 -0.2675,0.4727 -0.0715,0.1867 -0.1337,0.4044 -0.1399,0.6283 -0.0187,0.4447 0.0217,0.8024 0.0933,1.1103 0.0342,0.1524 0.084,0.2892 0.1337,0.4168 0.0529,0.1275 0.1089,0.2488 0.1617,0.367 0.112,0.2332 0.2177,0.4633 0.311,0.7152 0.0965,0.2489 0.168,0.535 0.2022,0.902 0.006,0.084 0.0186,0.1741 0.0405,0.2768 0.0217,0.0995 0.0497,0.2083 0.0932,0.3203 0.0778,0.2146 0.1898,0.4541 0.336,0.7123 -0.2271,-0.2519 -0.4572,-0.4977 -0.6719,-0.7527 -0.227,-0.2737 -0.4478,-0.5474 -0.6717,-0.8211 -0.112,-0.1337 -0.2115,-0.2768 -0.3173,-0.4168 -0.0933,-0.1243 -0.1865,-0.2519 -0.2799,-0.3762 -0.1617,-0.4168 -0.2301,-0.7465 -0.2177,-1.0357 0.006,-0.4168 0.1338,-0.7371 0.2737,-1.1072 0.0311,-0.0746 0.0591,-0.1493 0.084,-0.2239 0.0311,-0.0747 0.056,-0.1493 0.0808,-0.2208 0.0498,-0.1462 0.0934,-0.2893 0.1276,-0.4261 0.0684,-0.2768 0.1026,-0.5412 0.0964,-0.8025 -0.009,-0.2581 -0.0436,-0.5318 -0.1369,-0.8054 -0.0435,-0.14 -0.1026,-0.2799 -0.1773,-0.4261 -0.0342,-0.0716 -0.0746,-0.1462 -0.115,-0.2209 -0.0436,-0.0746 -0.0871,-0.1523 -0.1338,-0.2332 -0.1897,-0.3203 -0.3078,-0.6002 -0.3732,-0.8429 -0.0653,-0.2394 -0.0684,-0.4447 -0.0591,-0.6126 0.0187,-0.3359 0.1213,-0.5257 0.0809,-0.622 -0.0809,-0.1929 -0.846,0.339 -1.0357,1.244 -0.0964,0.4478 -0.0933,0.8024 -0.0684,1.1165 0.0156,0.1555 0.0405,0.2986 0.0653,0.4385 0.0311,0.1337 0.0591,0.2675 0.0995,0.3888 0.0778,0.2488 0.1587,0.4851 0.2084,0.7526 0.0249,0.1338 0.0435,0.2768 0.0498,0.4292 0.006,0.1555 0.0124,0.3173 0,0.5007 -0.009,0.1649 0.003,0.3701 0.0435,0.6096 0.0187,0.1214 0.0467,0.2488 0.0809,0.3857 0.0342,0.1368 0.0871,0.2736 0.1431,0.4198 0.003,0.0125 0.006,0.0218 0.0124,0.0311 -0.009,-0.0124 -0.0187,-0.028 -0.028,-0.0404 -0.0933,-0.143 -0.1897,-0.2768 -0.2737,-0.4229 -0.171,-0.2831 -0.339,-0.5661 -0.5069,-0.8429 -0.0435,-0.0715 -0.084,-0.14 -0.1244,-0.2083 -0.0404,-0.0716 -0.0778,-0.1431 -0.1182,-0.2116 -0.0747,-0.143 -0.1524,-0.283 -0.227,-0.4229 -0.0965,-0.1711 -0.1898,-0.3421 -0.2769,-0.5163 -0.0341,-0.1431 -0.0591,-0.2768 -0.0715,-0.4012 -0.0342,-0.2799 -0.0311,-0.5132 0.003,-0.7184 0.0343,-0.2022 0.0902,-0.3795 0.1649,-0.5474 0.0808,-0.1711 0.1741,-0.3328 0.2736,-0.5069 0.6656,-1.1539 0.8958,-2.0092 0.2986,-3.3714 -0.0778,-0.1742 -0.1337,-0.3328 -0.1804,-0.482 -0.0435,-0.1462 -0.0622,-0.2862 -0.0777,-0.4106 -0.028,-0.2519 -0.0125,-0.4541 0.0186,-0.6189 0.0591,-0.3297 0.1836,-0.5069 0.1587,-0.6096 -0.0467,-0.2083 -0.8926,0.227 -1.185,1.0978 -0.0715,0.2147 -0.1244,0.4106 -0.1617,0.5941 -0.0187,0.0902 -0.0342,0.1804 -0.0435,0.2643 -0.006,0.084 -0.0156,0.1649 -0.0156,0.2427 -0.009,0.3141 0.0218,0.5846 0.056,0.8459 0.0187,0.1306 0.0342,0.2581 0.0528,0.3856 0.0187,0.1276 0.0343,0.2582 0.0436,0.3919 0.0155,0.2737 0,0.5691 -0.084,0.9299 -0.0715,0.3235 -0.0622,0.8242 0.0591,1.4431 0.006,0.0405 0.0156,0.0778 0.0249,0.1182 -0.0249,-0.0591 -0.0529,-0.1182 -0.0777,-0.1742 -0.0591,-0.1337 -0.1182,-0.2674 -0.1743,-0.3981 -0.1119,-0.2643 -0.2301,-0.5225 -0.3358,-0.7775 -0.0995,-0.2581 -0.196,-0.5101 -0.2924,-0.7557 -0.0933,-0.2457 -0.1928,-0.4852 -0.2706,-0.7247 -0.006,-0.0218 -0.0124,-0.0435 -0.0186,-0.0653 -0.009,-0.0933 -0.0186,-0.1835 -0.0218,-0.2675 -0.009,-0.2519 0.009,-0.4541 0.0467,-0.6313 0.0715,-0.3483 0.2395,-0.5909 0.4167,-0.8708 0.591,-0.93 0.8273,-1.6795 0.4323,-2.9982 -0.0995,-0.339 -0.143,-0.6158 -0.1586,-0.849 -0.003,-0.2302 0.0249,-0.4168 0.0591,-0.563 0.0653,-0.2954 0.1741,-0.4447 0.1586,-0.5411 -0.0311,-0.1929 -0.7028,0.1057 -0.9921,0.8615 -0.1493,0.3732 -0.2084,0.6873 -0.2364,0.9703 -0.028,0.2799 -0.0186,0.5287 -0.009,0.7682 0.028,0.4759 0.084,0.9082 -0.0933,1.5302 -0.0747,0.2737 -0.0995,0.7091 -0.0466,1.2627 -0.1213,-0.4137 -0.2395,-0.8024 -0.3421,-1.1632 -0.0965,-0.3763 -0.1836,-0.7215 -0.2644,-1.0325 -0.0187,-0.0685 -0.0374,-0.1338 -0.0529,-0.1991 0,0 0,-0.003 0,-0.003 -0.006,-0.3483 0.006,-0.7216 0.0124,-1.0854 0.003,-0.1835 0.006,-0.3639 0.0125,-0.5381 0.0125,-0.1741 0.0218,-0.3421 0.0311,-0.5007 0.0155,-0.3141 0.0218,-0.5878 0.0155,-0.7869 -0.006,-0.3825 -0.006,-0.7557 -0.028,-1.1165 -0.006,-0.1773 -0.0217,-0.3514 -0.0311,-0.5225 -0.006,-0.171 -0.0155,-0.3359 -0.028,-0.4976 -0.0248,-0.3172 -0.0591,-0.6065 -0.1057,-0.8615 -0.0373,-0.2581 -0.084,-0.4758 -0.1462,-0.65 -0.1057,-0.3048 -0.2145,-0.594 -0.3047,-0.8584 -0.084,-0.2644 -0.168,-0.5038 -0.2395,-0.7029 -0.1493,-0.3981 -0.2675,-0.6437 -0.3483,-0.6437 -0.0841,0 -0.1929,0.2456 -0.3235,0.6561 -0.0653,0.2053 -0.14,0.4511 -0.2146,0.7278 -0.0747,0.2799 -0.1369,0.5878 -0.2115,0.9175 -0.0436,0.1866 -0.0653,0.4199 -0.0716,0.6904 0.003,0.2738 0.025,0.5785 0.0623,0.9113 0.0155,0.168 0.0373,0.339 0.0653,0.5163 0.0249,0.1773 0.0653,0.3576 0.1027,0.5443 0.0808,0.367 0.1678,0.7495 0.2767,1.1289 0.0622,0.1991 0.1617,0.4666 0.2862,0.7682 0.0591,0.1493 0.1275,0.3079 0.1959,0.4759 0.0684,0.1617 0.1492,0.3297 0.227,0.5007 0.1555,0.3359 0.311,0.6811 0.4572,0.9984 0,0 0.003,0.003 0.003,0.006 0.0156,0.0623 0.028,0.1245 0.0467,0.1897 0.0777,0.3142 0.1648,0.6625 0.2581,1.0388 0.0995,0.3701 0.2177,0.7651 0.339,1.1912 -0.2519,-0.4976 -0.5194,-0.8615 -0.7215,-1.0698 -0.451,-0.4697 -0.6283,-0.902 -0.8118,-1.3685 -0.0933,-0.2333 -0.1865,-0.4758 -0.3297,-0.7402 -0.143,-0.2644 -0.339,-0.5505 -0.5971,-0.8802 -0.5349,-0.6655 -1.2783,-0.7899 -1.2378,-0.5629 0.0186,0.112 0.1742,0.2363 0.3452,0.5287 0.084,0.1462 0.1742,0.3359 0.2519,0.5847 0.0871,0.2457 0.168,0.5536 0.224,0.9455 0.028,0.1928 0.0622,0.3732 0.0995,0.5411 0.0466,0.1649 0.0995,0.3173 0.1524,0.4603 0.115,0.2862 0.2488,0.5257 0.4043,0.734 0.1524,0.2084 0.3421,0.3826 0.5505,0.5349 0.2083,0.1525 0.4385,0.2862 0.6904,0.4106 0.308,0.1462 0.566,0.2674 0.8429,0.5101 0.1399,0.1244 0.2799,0.2799 0.4261,0.4883 0.0497,0.0683 0.0963,0.1461 0.1461,0.2239 0.006,0.0186 0.009,0.0342 0.0156,0.0497 0.0777,0.2395 0.171,0.4821 0.2675,0.7309 0.0932,0.2488 0.1897,0.5039 0.2892,0.7619 0.0995,0.2613 0.2177,0.5195 0.3297,0.7869 0.0559,0.1306 0.1119,0.2675 0.171,0.4012 0.028,0.0684 0.056,0.1369 0.0871,0.2022 -0.0249,-0.0311 -0.0467,-0.0622 -0.0684,-0.0964 -0.367,-0.5163 -0.7402,-0.8771 -1.017,-1.0699 -0.3079,-0.2208 -0.5257,-0.4448 -0.6998,-0.6749 -0.0902,-0.115 -0.168,-0.2302 -0.2426,-0.3483 -0.0746,-0.1182 -0.1337,-0.2395 -0.2053,-0.3608 -0.1368,-0.2457 -0.283,-0.5007 -0.4883,-0.7713 -0.0528,-0.0684 -0.1057,-0.1369 -0.1679,-0.2084 -0.0591,-0.0715 -0.1182,-0.143 -0.1866,-0.2177 -0.1337,-0.1461 -0.2892,-0.3017 -0.4758,-0.4634 -0.7496,-0.6562 -1.6826,-0.6873 -1.6235,-0.4354 0.0311,0.1244 0.2426,0.2395 0.4883,0.5412 0.1244,0.1524 0.255,0.3483 0.3794,0.6157 0.0653,0.1338 0.1213,0.2862 0.1866,0.4572 0.0653,0.1711 0.1244,0.3639 0.1804,0.5785 0.4385,1.7106 1.328,2.3201 2.6404,2.6716 0.1991,0.0529 0.3857,0.0995 0.563,0.1586 0.1835,0.0591 0.3639,0.1338 0.5474,0.2426 0.1835,0.1089 0.3701,0.255 0.5691,0.4572 0.0902,0.0933 0.1866,0.199 0.2893,0.3141 0.0808,0.1586 0.1648,0.3203 0.255,0.479 0.0747,0.143 0.1493,0.283 0.227,0.4261 0.0746,0.143 0.1524,0.2892 0.2395,0.4292 0.1648,0.2799 0.3359,0.566 0.507,0.8552 0.0839,0.1462 0.1741,0.2861 0.2674,0.4292 0.0187,0.028 0.0342,0.0529 0.0529,0.0808 -0.006,-0.009 -0.0156,-0.0155 -0.0218,-0.0248 -0.112,-0.112 -0.2301,-0.2115 -0.3328,-0.3079 -0.1026,-0.0964 -0.2052,-0.1835 -0.3047,-0.2612 -0.1929,-0.1524 -0.3733,-0.2675 -0.5288,-0.3453 -0.1679,-0.0839 -0.3203,-0.171 -0.4509,-0.2675 -0.1275,-0.0964 -0.2395,-0.1959 -0.3422,-0.2985 -0.2021,-0.2053 -0.3701,-0.4199 -0.5442,-0.6407 -0.0902,-0.112 -0.1742,-0.227 -0.2675,-0.3452 -0.0964,-0.1182 -0.199,-0.2364 -0.3203,-0.3577 -0.2364,-0.2457 -0.5474,-0.4914 -0.9455,-0.7713 -0.818,-0.5567 -1.7727,-0.4634 -1.667,-0.2208 0.0497,0.1181 0.2737,0.2084 0.5536,0.479 0.1431,0.1337 0.2954,0.3141 0.4603,0.5629 0.168,0.2488 0.3421,0.566 0.507,0.9827 0.0404,0.1027 0.0839,0.2022 0.1274,0.2955 0.0436,0.0933 0.0934,0.1835 0.14,0.2675 0.0964,0.1711 0.199,0.3234 0.3017,0.4634 0.2115,0.2799 0.4261,0.5039 0.6842,0.6749 0.2519,0.1711 0.5194,0.2986 0.8117,0.3919 0.1431,0.0466 0.2955,0.0871 0.4479,0.1182 0.0808,0.0155 0.1586,0.0311 0.2395,0.0435 0.084,0.0125 0.1679,0.0217 0.255,0.0311 0.4136,0.0436 0.7682,0.0684 1.1601,0.2333 0.2612,0.1182 0.5567,0.2923 0.9112,0.5785 0.5847,0.8272 1.2378,1.639 1.9501,2.4227 -0.2426,-0.1742 -0.4696,-0.3141 -0.6812,-0.4261 -0.115,-0.056 -0.2176,-0.1088 -0.311,-0.1524 -0.0963,-0.0435 -0.1834,-0.0809 -0.2643,-0.1057 -0.3608,-0.1151 -0.6407,-0.2675 -0.8802,-0.4323 -0.2394,-0.168 -0.4261,-0.3639 -0.6314,-0.5567 -0.1057,-0.0995 -0.2083,-0.1991 -0.3265,-0.2986 -0.1151,-0.0995 -0.2394,-0.199 -0.3732,-0.3048 -0.2675,-0.2084 -0.6033,-0.4167 -1.0543,-0.6283 -0.2301,-0.1026 -0.451,-0.1741 -0.6593,-0.2114 -0.2084,-0.0374 -0.4044,-0.0436 -0.5661,-0.028 -0.3266,0.028 -0.5225,0.1431 -0.4541,0.255 0.0684,0.112 0.2986,0.1711 0.6158,0.4043 0.1586,0.112 0.3514,0.2644 0.5505,0.4883 0.0995,0.112 0.2053,0.2426 0.311,0.3919 0.1058,0.1524 0.2146,0.3234 0.339,0.5162 0.2364,0.3795 0.4759,0.6905 0.7247,0.9393 0.255,0.2426 0.5225,0.423 0.793,0.5567 0.2768,0.1338 0.5567,0.224 0.8616,0.2675 0.3079,0.0435 0.6282,0.0498 0.9734,0.0342 0.6811,-0.0405 1.1881,-0.0902 2.1211,0.4198 0.7309,0.7216 1.5146,1.4121 2.3481,2.0465 -0.0342,-0.0155 -0.0684,-0.0311 -0.1026,-0.0435 -0.0684,-0.0311 -0.1368,-0.0622 -0.2022,-0.0902 -0.1306,-0.0529 -0.2581,-0.0995 -0.3763,-0.14 -0.2364,-0.0777 -0.4478,-0.1244 -0.6189,-0.143 -0.0964,-0.0125 -0.1866,-0.0249 -0.2737,-0.0436 -0.0839,-0.0187 -0.1617,-0.0404 -0.2395,-0.0653 -0.1554,-0.0497 -0.2923,-0.1058 -0.426,-0.171 -0.2613,-0.1276 -0.4976,-0.2706 -0.7309,-0.4292 -0.2333,-0.1649 -0.4821,-0.3297 -0.7868,-0.4852 -0.1556,-0.0778 -0.3266,-0.1524 -0.5163,-0.2271 -0.1867,-0.0777 -0.3951,-0.1493 -0.6345,-0.2208 -0.479,-0.143 -0.9455,-0.1182 -1.2627,-0.0373 -0.3172,0.0809 -0.4914,0.2239 -0.4074,0.3266 0.0839,0.1026 0.3327,0.1212 0.6904,0.2954 0.1804,0.0871 0.3888,0.2115 0.622,0.4043 0.1151,0.0995 0.2426,0.2084 0.3794,0.3359 0.1369,0.1307 0.2799,0.2799 0.4292,0.4541 0.1462,0.1711 0.2893,0.3266 0.4417,0.4603 0.1493,0.1306 0.2986,0.2457 0.4447,0.3452 0.2986,0.196 0.5847,0.339 0.8802,0.423 0.6034,0.1586 1.2036,0.1213 1.866,-0.0311 0.4106,-0.1026 0.7496,-0.2053 1.1788,-0.1866 0.1057,0.006 0.2177,0.0155 0.3359,0.0373 0.1182,0.0187 0.2457,0.056 0.3856,0.0871 0.0684,0.0187 0.1431,0.0373 0.2177,0.0591 0.8553,0.566 1.7479,1.0792 2.6623,1.5333 -0.2271,-0.0467 -0.4355,-0.0778 -0.6283,-0.0964 -0.2456,-0.0311 -0.4572,-0.0436 -0.6313,-0.0311 -0.3794,0.0248 -0.6967,-0.0125 -0.9828,-0.0778 -0.2799,-0.0809 -0.5319,-0.1897 -0.7962,-0.2986 -0.5411,-0.2084 -1.0885,-0.4634 -2.0962,-0.5442 -0.9922,-0.1182 -1.7976,0.4043 -1.5861,0.5753 0.1057,0.084 0.3483,0.0622 0.7308,0.1773 0.1897,0.0591 0.4261,0.1369 0.6967,0.2799 0.1369,0.0715 0.2861,0.1586 0.4416,0.2612 0.0778,0.0529 0.1586,0.112 0.2426,0.1742 0.0809,0.0653 0.1679,0.1338 0.2644,0.1991 0.3638,0.2737 0.7091,0.479 1.0356,0.6251 0.1618,0.0778 0.3266,0.1244 0.4883,0.1649 0.1586,0.0372 0.3141,0.0621 0.4697,0.0746 0.3078,0.0217 0.6064,0 0.905,-0.0653 0.3079,-0.0747 0.6127,-0.1897 0.9237,-0.3328 0.3794,-0.1773 0.6904,-0.3359 1.1103,-0.4043 0.1555,-0.028 0.3297,-0.0436 0.5225,-0.0436 0.0435,0.0187 0.0871,0.0373 0.1368,0.0591 0.3857,0.168 0.9268,0.3888 1.6142,0.6096 0.3421,0.112 0.7215,0.2239 1.132,0.3328 -0.3172,0.0187 -0.5847,0.0653 -0.7837,0.1244 -0.3701,0.0995 -0.6842,0.1182 -0.9766,0.1057 -0.1462,-0.006 -0.2892,-0.0186 -0.4292,-0.0404 -0.0684,-0.009 -0.1399,-0.0187 -0.2083,-0.0311 -0.0716,-0.0156 -0.14,-0.028 -0.2084,-0.0436 -0.5598,-0.1275 -1.1725,-0.2114 -2.1616,-0.1275 -1.0138,0.1089 -1.6888,0.7527 -1.4524,0.8896 0.1182,0.0683 0.3577,-0.006 0.762,0.0217 0.4074,0.0218 0.9641,0.1711 1.8008,0.5692 0.2084,0.1026 0.4043,0.1865 0.5909,0.2581 0.1928,0.0715 0.3794,0.112 0.5536,0.1461 0.3545,0.0685 0.678,0.0809 0.9859,0.0498 0.1493,-0.0124 0.3016,-0.0528 0.4478,-0.0964 0.1462,-0.0466 0.2893,-0.1026 0.4292,-0.1679 0.283,-0.1306 0.5536,-0.2986 0.8304,-0.4976 0.3297,-0.2395 0.6096,-0.479 1.0077,-0.6345 0.1555,-0.0591 0.3359,-0.1089 0.5443,-0.1462 0.8397,0.1493 1.7665,0.2675 2.7586,0.339 0.1587,0.009 0.3173,0.0218 0.4759,0.028 -0.003,0 -0.009,0.003 -0.0125,0.003 -0.1399,0.028 -0.2675,0.0591 -0.3888,0.0933 -0.2425,0.0684 -0.4416,0.1462 -0.594,0.2271 -0.171,0.0871 -0.339,0.1586 -0.4945,0.2083 -0.1555,0.0436 -0.3017,0.0747 -0.4447,0.0933 -0.2892,0.0405 -0.563,0.0435 -0.8491,0.0529 -0.0715,0.003 -0.1462,0.006 -0.2177,0.006 -0.0747,0.003 -0.1493,0.003 -0.227,0.003 -0.1493,0.003 -0.311,0.0125 -0.4821,0.0311 -0.1742,0.0218 -0.3576,0.0529 -0.5567,0.0995 -0.199,0.0467 -0.4168,0.112 -0.6531,0.1773 -0.9672,0.2862 -1.5053,1.0824 -1.241,1.1539 0.1307,0.0373 0.3484,-0.0778 0.7465,-0.1275 0.2021,-0.028 0.4447,-0.0218 0.7527,-0.009 0.3078,0.0218 0.6748,0.0809 1.1227,0.2084 0.2177,0.0653 0.4292,0.0965 0.6251,0.1244 0.2022,0.0249 0.3888,0.0373 0.566,0.0373 0.3577,-0.003 0.6687,-0.0373 0.9797,-0.1462 0.6065,-0.2052 1.0979,-0.5691 1.5489,-1.0729 0.255,-0.3141 0.4696,-0.5909 0.8241,-0.818 0.1711,-0.1088 0.3795,-0.2052 0.6407,-0.2861 0.2581,0.0809 0.4634,0.1773 0.6376,0.2861 0.3546,0.2271 0.5691,0.5039 0.8273,0.818 0.4478,0.5038 0.9392,0.8677 1.5457,1.0729 0.311,0.1089 0.6189,0.1431 0.9797,0.1462 0.1773,0 0.367,-0.0124 0.566,-0.0373 0.1991,-0.0279 0.4074,-0.0591 0.6283,-0.1244 0.4447,-0.1275 0.8117,-0.1866 1.1196,-0.2084 0.3079,-0.0124 0.5505,-0.0186 0.7526,0.009 0.3981,0.0497 0.6158,0.1648 0.7465,0.1275 0.2643,-0.0715 -0.2769,-0.8677 -1.2379,-1.1539 -0.2394,-0.0653 -0.4572,-0.1306 -0.6562,-0.1773 -0.1991,-0.0466 -0.3856,-0.0777 -0.5536,-0.0995 -0.1742,-0.0186 -0.3359,-0.0279 -0.4883,-0.0311 -0.0746,0 -0.1493,0 -0.2208,-0.003 -0.0747,0 -0.1493,-0.003 -0.2177,-0.006 -0.2892,-0.009 -0.563,-0.0124 -0.8491,-0.0529 -0.1462,-0.0186 -0.2954,-0.0497 -0.4478,-0.0933 -0.1586,-0.0497 -0.3204,-0.1212 -0.4946,-0.2083 -0.1523,-0.0809 -0.3545,-0.1587 -0.594,-0.2271 -0.1212,-0.0342 -0.2488,-0.0653 -0.3887,-0.0933 -0.003,0 -0.009,0 -0.0124,-0.003 0.1337,-0.006 0.2643,-0.0125 0.3981,-0.0218 1.0231,-0.0715 1.9748,-0.1897 2.8364,-0.3452 0.2083,0.0373 0.3856,0.0871 0.5473,0.1462 0.395,0.1555 0.6718,0.395 1.0046,0.6345 0.2768,0.199 0.5505,0.367 0.8304,0.4976 0.1431,0.0653 0.2861,0.1213 0.4292,0.1679 0.1492,0.0436 0.2985,0.084 0.451,0.0964 0.3047,0.0311 0.6282,0.0187 0.9827,-0.0498 0.1773,-0.0341 0.3639,-0.0746 0.5536,-0.1461 0.1866,-0.0716 0.3857,-0.1555 0.5878,-0.2581 0.8397,-0.3981 1.3965,-0.5474 1.8039,-0.5692 0.4043,-0.028 0.6469,0.0466 0.762,-0.0217 0.2363,-0.1369 -0.4354,-0.7807 -1.4556,-0.8896 -0.9858,-0.0839 -1.5986,0 -2.1584,0.1275 -0.0715,0.0156 -0.1399,0.028 -0.2052,0.0436 -0.0715,0.0124 -0.1431,0.0218 -0.2115,0.0311 -0.1399,0.0218 -0.2831,0.0342 -0.4292,0.0404 -0.2924,0.0125 -0.6065,-0.006 -0.9735,-0.1057 -0.199,-0.0591 -0.4665,-0.1057 -0.7868,-0.1244 0.3887,-0.1027 0.7526,-0.2115 1.0823,-0.3142 0.6904,-0.2239 1.2409,-0.4447 1.639,-0.6157 0.056,-0.0249 0.1089,-0.0498 0.1617,-0.0716 0.196,0 0.367,0.0156 0.5225,0.0436 0.423,0.0684 0.7309,0.227 1.1104,0.4043 0.3141,0.1431 0.6189,0.2581 0.9236,0.3328 0.2986,0.0653 0.5972,0.087 0.9051,0.0653 0.1555,-0.0125 0.311,-0.0374 0.4727,-0.0746 0.1586,-0.0405 0.3234,-0.0871 0.4852,-0.1649 0.3265,-0.1461 0.6687,-0.3514 1.0356,-0.6251 0.0965,-0.0653 0.1804,-0.1338 0.2675,-0.1991 0.0809,-0.0622 0.1617,-0.1213 0.2426,-0.1742 0.1555,-0.1026 0.3017,-0.1897 0.4385,-0.2612 0.2706,-0.143 0.5101,-0.2208 0.6967,-0.2799 0.3825,-0.1151 0.6251,-0.0933 0.7308,-0.1773 0.2116,-0.171 -0.594,-0.6935 -1.5892,-0.5753 -1.0045,0.0808 -1.5519,0.3358 -2.0931,0.5442 -0.2644,0.1089 -0.5163,0.2177 -0.7962,0.2986 -0.2861,0.0653 -0.6034,0.1026 -0.9828,0.0778 -0.171,-0.0125 -0.3825,0 -0.6313,0.0311 -0.1928,0.0186 -0.4075,0.0497 -0.6376,0.0964 0.9175,-0.451 1.8163,-0.9642 2.6747,-1.5333 0.0777,-0.0218 0.1462,-0.0435 0.2146,-0.0591 0.1431,-0.0311 0.2674,-0.0684 0.3856,-0.0871 0.1182,-0.0218 0.2333,-0.0311 0.3359,-0.0373 0.4292,-0.0187 0.7713,0.084 1.1788,0.1866 0.6624,0.1524 1.2626,0.1897 1.866,0.0311 0.2954,-0.084 0.5816,-0.227 0.8771,-0.423 0.1493,-0.0995 0.2986,-0.2146 0.4509,-0.3452 0.1462,-0.1337 0.2893,-0.2892 0.4386,-0.4603 0.1493,-0.1742 0.2923,-0.3234 0.4292,-0.4541 0.1368,-0.1275 0.2643,-0.2364 0.3825,-0.3359 0.2333,-0.1928 0.4385,-0.3172 0.622,-0.4043 0.3546,-0.1742 0.6034,-0.1928 0.6873,-0.2954 0.084,-0.1027 -0.0902,-0.2457 -0.4074,-0.3266 -0.3141,-0.0809 -0.7806,-0.1057 -1.2658,0.0373 -0.2364,0.0715 -0.4447,0.1431 -0.6314,0.2208 -0.1865,0.0747 -0.3607,0.1493 -0.5131,0.2271 -0.311,0.1555 -0.5536,0.3203 -0.79,0.4852 -0.2364,0.1586 -0.4696,0.3016 -0.7308,0.4292 -0.1306,0.0652 -0.2706,0.1213 -0.4261,0.171 -0.0746,0.0249 -0.1556,0.0466 -0.2395,0.0653 -0.0871,0.0187 -0.1773,0.0311 -0.2737,0.0436 -0.1742,0.0186 -0.3826,0.0653 -0.6189,0.143 -0.1182,0.0405 -0.2457,0.0871 -0.3763,0.14 -0.0654,0.028 -0.1306,0.0591 -0.1991,0.0902 -0.0342,0.0124 -0.0715,0.028 -0.1057,0.0435 0.0404,-0.0311 0.0809,-0.0591 0.1244,-0.0902 0.2892,-0.2363 0.5816,-0.4758 0.8708,-0.7122 0.1462,-0.115 0.283,-0.2457 0.423,-0.3701 0.1368,-0.1244 0.2768,-0.2519 0.4136,-0.3763 0.1369,-0.1275 0.2799,-0.2457 0.4075,-0.3795 0.0404,-0.0404 0.0808,-0.0839 0.1243,-0.1243 0.9206,-0.5039 1.4245,-0.4542 2.1056,-0.4137 0.3452,0.0156 0.6656,0.009 0.9735,-0.0342 0.3078,-0.0435 0.5846,-0.1337 0.8615,-0.2675 0.2705,-0.1337 0.538,-0.3141 0.7962,-0.5567 0.2456,-0.2488 0.4851,-0.5598 0.7215,-0.9393 0.1213,-0.1928 0.2332,-0.3638 0.339,-0.5162 0.1057,-0.1493 0.2115,-0.2799 0.311,-0.3919 0.2021,-0.2239 0.3888,-0.3763 0.5505,-0.4883 0.3172,-0.2332 0.5505,-0.2923 0.6158,-0.4043 0.0684,-0.1119 -0.1275,-0.227 -0.4541,-0.255 -0.1617,-0.0156 -0.3545,-0.009 -0.566,0.028 -0.2115,0.0373 -0.4292,0.1088 -0.6593,0.2114 -0.4511,0.2116 -0.7838,0.4199 -1.0544,0.6283 -0.1306,0.1058 -0.2581,0.2053 -0.3732,0.3048 -0.1151,0.0995 -0.2209,0.1991 -0.3235,0.2986 -0.2084,0.1928 -0.3949,0.3887 -0.6344,0.5567 -0.2395,0.1648 -0.5163,0.3172 -0.8771,0.4323 -0.084,0.0248 -0.171,0.0622 -0.2674,0.1057 -0.0965,0.0436 -0.196,0.0964 -0.3079,0.1524 -0.2115,0.112 -0.4448,0.2519 -0.6874,0.4261 0.2271,-0.255 0.4603,-0.5069 0.678,-0.7682 0.224,-0.2799 0.4479,-0.5629 0.6718,-0.8397 0.1151,-0.1368 0.2177,-0.283 0.3204,-0.4261 0.0964,-0.1275 0.1897,-0.2581 0.283,-0.3857 0.3514,-0.2892 0.6469,-0.4633 0.9144,-0.5815 0.3887,-0.1649 0.7433,-0.1897 1.16,-0.2333 0.0871,-0.009 0.1711,-0.0186 0.2519,-0.0311 0.0809,-0.0124 0.1617,-0.028 0.2395,-0.0435 0.1555,-0.0311 0.3048,-0.0716 0.451,-0.1182 0.2892,-0.0933 0.5598,-0.2208 0.8117,-0.3919 0.255,-0.171 0.4728,-0.395 0.6811,-0.6749 0.1027,-0.14 0.2022,-0.2923 0.3017,-0.4634 0.0467,-0.084 0.0964,-0.1742 0.1431,-0.2675 0.0435,-0.0933 0.084,-0.1928 0.1244,-0.2955 0.1648,-0.4167 0.339,-0.7339 0.5069,-0.9827 0.1649,-0.2488 0.3141,-0.4292 0.4572,-0.5629 0.283,-0.2706 0.5039,-0.3609 0.5567,-0.479 0.1058,-0.2426 -0.846,-0.3359 -1.667,0.2208 -0.395,0.2799 -0.7091,0.5256 -0.9455,0.7713 -0.1213,0.1213 -0.2239,0.2395 -0.3172,0.3577 -0.0964,0.1182 -0.1804,0.2332 -0.2706,0.3452 -0.1772,0.2208 -0.3421,0.4354 -0.5473,0.6407 -0.0996,0.1026 -0.2116,0.2021 -0.339,0.2985 -0.1307,0.0965 -0.2831,0.1836 -0.451,0.2675 -0.1555,0.0778 -0.3359,0.1929 -0.5319,0.3453 -0.0963,0.0777 -0.199,0.1648 -0.3016,0.2612 -0.1027,0.0964 -0.2208,0.1959 -0.3328,0.3079 -0.006,0.009 -0.0156,0.0155 -0.0218,0.0248 0.009,-0.0155 0.0187,-0.0279 0.028,-0.0435 0.0902,-0.143 0.1897,-0.283 0.2737,-0.4292 0.1711,-0.2892 0.339,-0.5754 0.507,-0.8584 0.0404,-0.0715 0.0839,-0.143 0.1274,-0.2114 0.0374,-0.0716 0.0747,-0.1462 0.112,-0.2177 0.0778,-0.1431 0.1524,-0.283 0.2302,-0.4262 0.0933,-0.171 0.1835,-0.342 0.2706,-0.5131 0.1026,-0.1151 0.199,-0.2208 0.2861,-0.3141 0.2022,-0.2022 0.3887,-0.3483 0.5723,-0.4572 0.1865,-0.1088 0.3638,-0.1835 0.5473,-0.2426 0.1804,-0.0591 0.3639,-0.1057 0.5629,-0.1586 1.3156,-0.3515 2.202,-0.961 2.6405,-2.6716 0.056,-0.2146 0.1182,-0.4074 0.1804,-0.5785 0.0653,-0.171 0.1182,-0.3234 0.1866,-0.4572 0.1244,-0.2674 0.2551,-0.4633 0.3794,-0.6157 0.2458,-0.3017 0.4603,-0.4168 0.4883,-0.5412 0.0622,-0.2519 -0.8739,-0.2208 -1.6266,0.4354 z"
       style="fill:#d7b369;fill-rule:evenodd;filter:url(#filter1058)"
       id="path885-5"
       transform="matrix(0.41098883,0,0,0.41098883,-35.077363,-21.5438)" />
    <path
       d="m 306.0932,283.8046 c -2.6168,0 -5.23,0.6404 -6.9648,1.1785 -0.6698,0.2086 -1.2115,0.6807 -1.4897,1.2883 -0.2562,0.5709 -0.2562,1.2004 -0.004,1.7714 0.4099,0.9187 0.3696,1.7677 -0.1171,2.5217 -1.3213,2.0386 -5.7022,2.9828 -9.289,3.0085 0.0183,15.6353 2.7304,24.462 17.8642,32.1838 15.1339,-7.7218 17.8423,-16.5485 17.8606,-32.1838 -3.5831,-0.0257 -7.9677,-0.9699 -9.2853,-3.0085 -0.4904,-0.754 -0.5307,-1.603 -0.1208,-2.5217 0.2598,-0.571 0.2562,-1.2005 0,-1.7714 -0.2781,-0.6076 -0.8198,-1.0797 -1.4933,-1.2883 -2.485,-0.7722 -4.8933,-1.1785 -6.9612,-1.1785 z m 0,1.603 c 1.9069,0 4.154,0.3807 6.4855,1.109 0.2342,0.0732 0.4172,0.2233 0.5051,0.4172 0.0695,0.1537 0.0695,0.3002 0,0.4539 -0.626,1.4091 -0.5417,2.8474 0.2378,4.0515 1.5226,2.3424 5.5083,3.4075 9.0181,3.6709 -0.1134,7.7701 -1.0284,12.7074 -3.0817,16.8029 -2.3972,4.7791 -6.4708,8.5134 -13.1648,12.0376 -6.6904,-3.5242 -10.7712,-7.2585 -13.1685,-12.0376 -2.0532,-4.0955 -2.9682,-9.0328 -3.0816,-16.8029 3.5098,-0.2634 7.4992,-1.3285 9.0181,-3.6709 0.7832,-1.2041 0.8674,-2.6424 0.2378,-4.0515 -0.0694,-0.1537 -0.0694,-0.3002 0,-0.4539 0.0879,-0.1939 0.2746,-0.344 0.5051,-0.4172 1.6287,-0.5088 4.0772,-1.109 6.4891,-1.109 z"
       style="fill:#d7b369;fill-rule:evenodd;filter:url(#filter1058)"
       id="path887-1"
       transform="matrix(0.41098883,0,0,0.41098883,-35.077363,-21.5438)" />
    <path
       d="m 290.9155,296.0672 c 0.1174,5.1702 0.6192,10.7212 2.952,15.373 2.6178,5.2202 7.2018,8.6116 12.2258,11.3157 5.0268,-2.7043 9.603,-6.0932 12.222,-11.3157 2.3329,-4.6517 2.8346,-10.2027 2.9519,-15.373 -3.1543,-0.3637 -7.1289,-1.4329 -8.8302,-4.0538 -0.9113,-1.4038 -1.0417,-3.0491 -0.5011,-4.5906 -1.8642,-0.5581 -3.9061,-0.9606 -5.8427,-0.9606 -1.935,0 -3.9803,0.401 -5.8457,0.9602 0.543,1.542 0.4103,3.1859 -0.5017,4.591 -1.7006,2.6197 -5.6766,3.6899 -8.8303,4.0538 z"
       style="display:inline;fill:#d7b369;fill-rule:evenodd;filter:url(#filter1058)"
       id="path889-5"
       transform="matrix(0.41098883,0,0,0.41098883,-35.077363,-21.5438)" />
    <path
       d="m 302.5788,312.4779 3.5141,-2.773 3.5109,2.773 -3.5109,2.773 z m 4.3075,4.8526 c 0,-0.2817 -0.1436,-0.5276 -0.3591,-0.6663 h 0.6565 c 0,0 -0.2187,-0.2504 -0.4311,-0.6844 l 3.7949,-2.992 c 0.1601,-0.1297 0.2482,-0.3176 0.2482,-0.5099 0,-0.1968 -0.0881,-0.3846 -0.2482,-0.5099 l -3.5203,-2.7819 c 0.1172,-0.0536 0.2022,-0.1789 0.2022,-0.3264 0,-0.1968 -0.1504,-0.3578 -0.3395,-0.3578 h -0.3073 v -0.5144 h 0.0228 c 0.1995,0 0.3596,-0.161 0.3596,-0.3622 0,-0.1969 -0.1601,-0.3578 -0.3596,-0.3578 h -0.0228 v -15.2961 c 0,-0.2952 -0.2187,-0.5323 -0.4897,-0.5323 -0.2711,0 -0.4897,0.2371 -0.4897,0.5323 v 0.1565 h -2.3745 c -0.0913,0 -0.1664,0.085 -0.1664,0.1834 v 0.2594 c 0,0.1029 0.0751,0.1878 0.1664,0.1878 h 0.3954 v 0.5054 h -0.3954 c -0.0913,0 -0.1664,0.0806 -0.1664,0.1834 v 0.2594 c 0,0.1029 0.0751,0.1879 0.1664,0.1879 h 2.3745 v 13.3729 h -0.0265 c -0.1959,0 -0.356,0.1609 -0.356,0.3578 0,0.2012 0.1601,0.3622 0.356,0.3622 h 0.0265 v 0.5144 h -0.3104 c -0.1861,0 -0.3364,0.161 -0.3364,0.3578 0,0.1475 0.0814,0.2728 0.2026,0.3264 l -3.5208,2.7819 c -0.1601,0.1253 -0.2513,0.3131 -0.2513,0.5099 0,0.1923 0.0912,0.3802 0.2513,0.5099 l 3.795,2.992 c -0.2125,0.434 -0.4312,0.6844 -0.4312,0.6844 h 0.6566 c -0.2187,0.1387 -0.3627,0.3846 -0.3627,0.6663 0,0.4384 0.356,0.7918 0.797,0.7918 0.4373,0 0.7934,-0.3534 0.7934,-0.7918 z"
       style="display:inline;fill:#ffffff;fill-rule:evenodd;filter:url(#filter1058)"
       id="path891-2"
       transform="matrix(0.41098883,0,0,0.41098883,-35.077363,-21.5438)" />
    <path
       d="m 309.077,296.1351 v -3.9325 h 0.936 v 3.9325 z m -0.8697,5.8757 v -3.9325 h 1.4956 c 0.4652,0 0.815,0.1239 1.0497,0.3711 0.2344,0.2474 0.3515,0.576 0.3515,0.9858 0,0.4284 -0.1318,0.7535 -0.396,0.9749 -0.2639,0.2216 -0.6231,0.3325 -1.0772,0.3325 h -0.5097 v 1.2682 z m 0.9139,-2.0826 h 0.3878 c 0.2033,0 0.36,-0.0451 0.4708,-0.1355 0.1109,-0.0907 0.1662,-0.2171 0.1662,-0.3796 0,-0.155 -0.0536,-0.2806 -0.1608,-0.3764 -0.1068,-0.0961 -0.2619,-0.144 -0.4651,-0.144 h -0.3989 z m 0.6925,8.0081 c -0.5723,0 -1.0533,-0.1783 -1.4428,-0.5346 -0.3895,-0.3563 -0.5845,-0.8464 -0.5845,-1.4703 0,-0.5834 0.1811,-1.0681 0.5428,-1.4539 0.362,-0.3858 0.8567,-0.5788 1.4845,-0.5788 0.2843,0 0.5675,0.0626 0.8501,0.1882 0.2824,0.1256 0.527,0.3158 0.7339,0.5706 l -0.6811,0.576 c -0.1072,-0.1292 -0.2393,-0.2372 -0.3963,-0.324 -0.1568,-0.0867 -0.3257,-0.1301 -0.5066,-0.1301 -0.299,0 -0.5502,0.1043 -0.7534,0.3129 -0.203,0.2087 -0.3045,0.4882 -0.3045,0.8391 0,0.3175 0.0978,0.5834 0.2934,0.7974 0.1959,0.2143 0.4505,0.3214 0.7645,0.3214 0.1735,0 0.3405,-0.0416 0.5012,-0.1247 0.1607,-0.083 0.2945,-0.191 0.4017,-0.324 l 0.6811,0.5817 c -0.1808,0.2251 -0.407,0.407 -0.6786,0.5454 -0.2713,0.1386 -0.5731,0.2077 -0.9054,0.2077 z"
       style="display:inline;fill:#ffffff;fill-rule:evenodd;filter:url(#filter1058)"
       id="path893-9"
       transform="matrix(0.41098883,0,0,0.41098883,-35.077363,-21.5438)" />
    <path
       d="m 306.2717,281.6798 c 2.4009,0 5.2933,0.6155 6.5778,1.2105 l 2.261,-6.8584 -0.961,-0.2569 -0.4478,2.0508 -0.961,-0.8332 -0.3826,1.4739 c 0,0 1.1508,0.0634 1.0854,0.1928 -0.3203,0.6404 -1.8567,1.7304 -3.8441,1.3467 -2.9141,-0.5654 -2.7555,-3.0772 -2.7555,-3.0772 l 1.5395,0.4498 0.1275,-1.8602 -1.4089,0.3204 0.5754,-2.6912 h -2.8084 l 0.5754,2.6912 -1.4089,-0.3204 0.1275,1.8602 1.5395,-0.4498 c 0,0 0.1586,2.5118 -2.7586,3.0772 -1.9843,0.3837 -3.5238,-0.7063 -3.8441,-1.3467 -0.0623,-0.1294 1.0916,-0.1928 1.0916,-0.1928 l -0.3857,-1.4739 -0.961,0.8332 -0.4478,-2.0508 -0.9641,0.2569 2.2641,6.8584 c 1.2845,-0.595 4.1738,-1.2105 6.5748,-1.2105 z"
       style="display:inline;fill:#d7b369;fill-rule:evenodd;filter:url(#filter1058)"
       id="path895-5"
       transform="matrix(0.41098883,0,0,0.41098883,-35.077363,-21.5438)" />
    <path
       d="m 306.2717,282.175 c -2.342,0 -5.253,0.6223 -6.4193,1.1877 l 0.2675,0.8152 c 0.8895,-0.554 3.7694,-1.2239 6.1518,-1.2239 2.3854,0 5.2685,0.6699 6.1517,1.2239 l 0.2706,-0.8152 c -1.1663,-0.5654 -4.0773,-1.1877 -6.4223,-1.1877 z"
       style="display:inline;fill:#d7b369;fill-rule:evenodd;filter:url(#filter1058)"
       id="path897-1"
       transform="matrix(0.41098883,0,0,0.41098883,-35.077363,-21.5438)" />
  </g>
  <g
     inkscape:groupmode="layer"
     id="layer3"
     inkscape:label="Instituto"
     style="display:inline"
     transform="translate(-58.935254,-81.335121)">
    <path
       d="m 279.5717,345.407 v -7.5257 h 1.7913 v 7.5257 z m 7.8543,-7.5257 h 1.7702 v 7.5257 h -1.8229 l -2.8639,-4.5136 h -0.009 v 4.5136 h -1.7702 v -7.5257 h 1.7702 l 2.9254,4.6321 z m 5.3847,7.6317 c -1.0531,0 -1.9786,-0.4028 -2.7771,-1.2084 l 1.0494,-1.2932 c 0.551,0.6007 1.1412,0.9011 1.7699,0.9011 0.5655,0 0.8481,-0.2049 0.8481,-0.6148 0,-0.2049 -0.0779,-0.3657 -0.2333,-0.4825 -0.1553,-0.1165 -0.4521,-0.2488 -0.8903,-0.3974 -0.3393,-0.1131 -0.6236,-0.2262 -0.8532,-0.339 -0.2296,-0.1131 -0.4646,-0.2633 -0.705,-0.4507 -0.2401,-0.1871 -0.4204,-0.415 -0.5406,-0.6834 -0.1202,-0.2688 -0.18,-0.5797 -0.18,-0.9329 0,-0.6219 0.2384,-1.1466 0.7155,-1.5741 0.4768,-0.4275 1.0582,-0.6483 1.7436,-0.6625 0.9538,-0.007 1.8266,0.3215 2.618,0.9859 l -1.0071,1.3142 c -0.6007,-0.4805 -1.1163,-0.7206 -1.5474,-0.7206 -0.2121,0 -0.3799,0.053 -0.5035,0.1587 -0.1236,0.1061 -0.1856,0.2475 -0.1856,0.4241 -0.007,0.1627 0.0654,0.3005 0.2174,0.4136 0.1519,0.1128 0.4433,0.2509 0.8745,0.4133 0.2262,0.0847 0.371,0.1394 0.4345,0.1641 0.0635,0.0249 0.1925,0.078 0.3869,0.159 0.1942,0.0814 0.3215,0.1415 0.3816,0.1803 0.0601,0.0388 0.1624,0.1023 0.3073,0.1908 0.1451,0.0884 0.242,0.1644 0.2917,0.2279 0.0493,0.0635 0.1201,0.1502 0.212,0.2596 0.0918,0.1097 0.1536,0.2175 0.1854,0.3235 0.0317,0.106 0.0618,0.2296 0.0901,0.3707 0.0284,0.1415 0.0422,0.2934 0.0422,0.4559 0,0.3393 -0.0564,0.6485 -0.1695,0.9275 -0.1131,0.2792 -0.2613,0.5088 -0.445,0.6891 -0.184,0.18 -0.3977,0.3319 -0.6415,0.4558 -0.2438,0.1236 -0.4892,0.212 -0.7364,0.2647 -0.2475,0.053 -0.4984,0.0797 -0.7526,0.0797 z m 5.1936,-0.106 v -5.9463 h -1.9927 v -1.5794 h 5.7449 v 1.5794 h -1.9927 v 5.9463 z m 4.6639,0 v -7.5257 h 1.7912 v 7.5257 z m 4.7063,0 v -5.9463 h -1.9927 v -1.5794 h 5.7449 v 1.5794 h -1.9927 v 5.9463 z m 7.6422,0.106 c -0.9467,0 -1.701,-0.2843 -2.2629,-0.8533 -0.5618,-0.5689 -0.8427,-1.3657 -0.8427,-2.3901 v -4.3883 h 1.7915 v 4.2715 c 0,0.4875 0.1148,0.8923 0.3444,1.2138 0.2296,0.3214 0.553,0.4822 0.9697,0.4822 0.3957,0 0.7192,-0.152 0.97,-0.4559 0.2509,-0.3038 0.3762,-0.7171 0.3762,-1.2401 v -4.2715 h 1.7807 v 4.3883 c 0,0.9964 -0.2738,1.7858 -0.8215,2.3689 -0.5476,0.5831 -1.3161,0.8745 -2.3054,0.8745 z m 5.9043,-0.106 v -5.9463 h -1.9927 v -1.5794 h 5.7449 v 1.5794 h -1.9927 v 5.9463 z m 7.8012,0.106 c -1.1446,0 -2.0775,-0.3623 -2.7983,-1.0865 -0.7206,-0.7243 -1.0812,-1.6518 -1.0812,-2.7825 0,-1.1376 0.3606,-2.0668 1.0812,-2.7876 0.7208,-0.7209 1.6537,-1.0812 2.7983,-1.0812 1.1308,0 2.0563,0.3569 2.7771,1.0707 0.7209,0.7138 1.0812,1.6464 1.0812,2.7981 0,1.1449 -0.3603,2.0758 -1.0812,2.7932 -0.7208,0.7172 -1.6463,1.0758 -2.7771,1.0758 z m 0,-1.6535 c 0.5794,0 1.0599,-0.212 1.4415,-0.6361 0.3818,-0.424 0.5726,-0.9504 0.5726,-1.5794 0,-0.6358 -0.1908,-1.1642 -0.5726,-1.5846 -0.3816,-0.4204 -0.8621,-0.6307 -1.4415,-0.6307 -0.5935,0 -1.0811,0.212 -1.4626,0.6361 -0.3816,0.4241 -0.5724,0.9504 -0.5724,1.5792 0,0.6219 0.1908,1.1466 0.5724,1.574 0.3815,0.4278 0.8691,0.6415 1.4626,0.6415 z m -3.9855,4.5244 1.1872,-1.5897 1.6855,-0.0107 -1.3145,1.6004 z m 0.7209,8.3738 c -1.1447,0 -2.0775,-0.3622 -2.7984,-1.0865 -0.7206,-0.7242 -1.0811,-1.6517 -1.0811,-2.7825 0,-1.1375 0.3605,-2.0667 1.0811,-2.7876 0.7209,-0.7208 1.6537,-1.0811 2.7984,-1.0811 1.1307,0 2.0562,0.3569 2.7771,1.0706 0.7208,0.7138 1.0811,1.6464 1.0811,2.7981 0,1.1449 -0.3603,2.0758 -1.0811,2.7933 -0.7209,0.7171 -1.6464,1.0757 -2.7771,1.0757 z m 0,-1.6534 c 0.5794,0 1.0598,-0.212 1.4414,-0.6361 0.3818,-0.4241 0.5726,-0.9505 0.5726,-1.5795 0,-0.6358 -0.1908,-1.1642 -0.5726,-1.5845 -0.3816,-0.4204 -0.862,-0.6308 -1.4414,-0.6308 -0.5936,0 -1.0812,0.2121 -1.4627,0.6361 -0.3815,0.4241 -0.5723,0.9505 -0.5723,1.5792 0,0.6219 0.1908,1.1466 0.5723,1.5741 0.3815,0.4278 0.8691,0.6415 1.4627,0.6415 z m -69.5968,1.5474 v -7.5257 h 2.8618 c 0.8904,0 1.56,0.2367 2.0087,0.7101 0.4487,0.4737 0.6732,1.1024 0.6732,1.8867 0,0.8198 -0.2526,1.4417 -0.758,1.8655 -0.5051,0.4241 -1.1922,0.6361 -2.0616,0.6361 h -0.9751 v 2.4273 z m 1.749,-3.9855 h 0.7421 c 0.3886,0 0.6888,-0.0865 0.9008,-0.2596 0.2121,-0.1732 0.3181,-0.415 0.3181,-0.726 0,-0.2968 -0.1026,-0.5372 -0.3073,-0.7209 -0.2049,-0.1836 -0.5017,-0.2755 -0.8904,-0.2755 h -0.7633 z m 6.9959,4.0915 c -1.0531,0 -1.9786,-0.4028 -2.7771,-1.2084 l 1.0494,-1.2931 c 0.551,0.6006 1.1412,0.9011 1.7699,0.9011 0.5655,0 0.8481,-0.205 0.8481,-0.6148 0,-0.205 -0.0779,-0.3657 -0.2333,-0.4825 -0.1553,-0.1165 -0.4521,-0.2489 -0.8903,-0.3974 -0.3393,-0.1131 -0.6236,-0.2262 -0.8533,-0.339 -0.2296,-0.1131 -0.4645,-0.2634 -0.7049,-0.4507 -0.2401,-0.1871 -0.4204,-0.415 -0.5406,-0.6835 -0.1202,-0.2687 -0.18,-0.5797 -0.18,-0.9329 0,-0.6219 0.2384,-1.1466 0.7155,-1.574 0.4768,-0.4275 1.0581,-0.6483 1.7436,-0.6625 0.9538,-0.007 1.8266,0.3214 2.618,0.9859 l -1.0071,1.3141 c -0.6007,-0.4804 -1.1163,-0.7205 -1.5474,-0.7205 -0.2121,0 -0.3799,0.053 -0.5035,0.1587 -0.1236,0.106 -0.1856,0.2475 -0.1856,0.4241 -0.007,0.1627 0.0654,0.3004 0.2174,0.4135 0.1519,0.1129 0.4433,0.2509 0.8745,0.4133 0.2262,0.0848 0.371,0.1395 0.4345,0.1642 0.0635,0.0249 0.1925,0.0779 0.3869,0.159 0.1942,0.0813 0.3215,0.1414 0.3816,0.1803 0.0601,0.0388 0.1624,0.1023 0.3073,0.1907 0.1451,0.0885 0.242,0.1644 0.2916,0.2279 0.0494,0.0635 0.1202,0.1503 0.2121,0.2597 0.0918,0.1097 0.1536,0.2174 0.1854,0.3234 0.0317,0.106 0.0618,0.2296 0.0901,0.3708 0.0284,0.1415 0.0422,0.2934 0.0422,0.4558 0,0.3393 -0.0564,0.6486 -0.1695,0.9275 -0.1131,0.2792 -0.2613,0.5088 -0.445,0.6891 -0.184,0.18 -0.3977,0.3319 -0.6415,0.4558 -0.2438,0.1236 -0.4893,0.2121 -0.7364,0.2648 -0.2475,0.053 -0.4984,0.0796 -0.7526,0.0796 z m 3.7309,-0.106 v -7.5257 h 1.7912 v 7.5257 z m 6.7626,0.0955 c -1.0953,0 -2.0157,-0.341 -2.7612,-1.023 -0.7455,-0.682 -1.1183,-1.62 -1.1183,-2.8142 0,-1.1163 0.3464,-2.0438 1.0389,-2.7822 0.6925,-0.7384 1.6393,-1.1078 2.8406,-1.1078 0.544,0 1.0866,0.1202 1.6271,0.3603 0.5406,0.2404 1.0086,0.6043 1.4043,1.0919 l -1.3036,1.1024 c -0.205,-0.2475 -0.4576,-0.4541 -0.758,-0.6202 -0.3002,-0.1661 -0.6236,-0.2489 -0.9698,-0.2489 -0.5723,0 -1.0527,0.1995 -1.4414,0.5987 -0.3889,0.3994 -0.5831,0.9345 -0.5831,1.6058 0,0.6077 0.1874,1.1166 0.5619,1.5264 0.3744,0.4099 0.862,0.6149 1.4626,0.6149 0.3323,0 0.652,-0.0797 0.9593,-0.2387 0.3073,-0.159 0.5635,-0.3657 0.7685,-0.6199 l 1.3036,1.1128 c -0.3461,0.4312 -0.7789,0.779 -1.2983,1.044 -0.5195,0.2651 -1.097,0.3977 -1.7331,0.3977 z m 7.4832,0.0105 c -1.1446,0 -2.0775,-0.3622 -2.7983,-1.0865 -0.7206,-0.7242 -1.0812,-1.6517 -1.0812,-2.7825 0,-1.1375 0.3606,-2.0667 1.0812,-2.7876 0.7208,-0.7208 1.6537,-1.0811 2.7983,-1.0811 1.1308,0 2.0563,0.3569 2.7771,1.0706 0.7209,0.7138 1.0812,1.6464 1.0812,2.7981 0,1.1449 -0.3603,2.0758 -1.0812,2.7933 -0.7208,0.7171 -1.6463,1.0757 -2.7771,1.0757 z m 0,-1.6534 c 0.5794,0 1.0599,-0.212 1.4414,-0.6361 0.3819,-0.4241 0.5726,-0.9505 0.5726,-1.5795 0,-0.6358 -0.1907,-1.1642 -0.5726,-1.5845 -0.3815,-0.4204 -0.862,-0.6308 -1.4414,-0.6308 -0.5935,0 -1.0811,0.2121 -1.4627,0.6361 -0.3815,0.4241 -0.5723,0.9505 -0.5723,1.5792 0,0.6219 0.1908,1.1466 0.5723,1.5741 0.3816,0.4278 0.8692,0.6415 1.4627,0.6415 z m 4.8969,1.5474 v -7.5257 h 2.8618 c 0.8904,0 1.5599,0.2367 2.0087,0.7101 0.4487,0.4737 0.6732,1.1024 0.6732,1.8867 0,0.8198 -0.2526,1.4417 -0.758,1.8655 -0.5051,0.4241 -1.1922,0.6361 -2.0616,0.6361 h -0.9751 v 2.4273 z m 1.749,-3.9855 h 0.7421 c 0.3886,0 0.6888,-0.0865 0.9008,-0.2596 0.212,-0.1732 0.3181,-0.415 0.3181,-0.726 0,-0.2968 -0.1027,-0.5372 -0.3073,-0.7209 -0.205,-0.1836 -0.5017,-0.2755 -0.8904,-0.2755 h -0.7633 z m 4.6955,3.9855 v -7.5257 h 4.9077 v 1.5795 h -3.1692 v 1.4414 h 2.5016 v 1.5582 h -2.5016 v 1.3672 h 3.392 v 1.5794 z m 6.1583,0 v -7.5257 h 2.6076 c 1.1801,0 2.1251,0.3481 2.8355,1.044 0.7101,0.6962 1.0653,1.6058 1.0653,2.7295 0,1.1236 -0.3447,2.0299 -1.0336,2.7187 -0.6891,0.6891 -1.6341,1.0335 -2.8355,1.0335 z m 1.749,-1.5794 h 0.7738 c 0.6359,0 1.1518,-0.2067 1.5475,-0.62 0.3957,-0.4133 0.5936,-0.9309 0.5936,-1.5528 0,-0.629 -0.1908,-1.1517 -0.5724,-1.5687 -0.3815,-0.417 -0.862,-0.6253 -1.4414,-0.6253 h -0.9011 z m 10.271,1.5794 -0.5017,-1.3462 h -2.7116 l -0.4365,1.3462 h -1.8514 l 2.6377,-7.5257 h 1.8071 l 2.7842,7.5257 z m -2.7241,-2.8514 h 1.6643 l -0.8269,-2.5333 h -0.0213 z m 8.3314,2.9362 c -1.1237,0 -2.0512,-0.3427 -2.7825,-1.0282 -0.7314,-0.6854 -1.097,-1.6217 -1.097,-2.8088 0,-1.1237 0.3427,-2.0512 1.0281,-2.7825 0.6854,-0.7313 1.6146,-1.097 2.7879,-1.097 0.5581,0 1.1111,0.1165 1.6588,0.3498 0.5476,0.2333 1.0086,0.5652 1.383,0.9964 l -1.2611,1.0598 c -0.5088,-0.4946 -1.1061,-0.7418 -1.7915,-0.7418 -0.5511,0 -1.0157,0.1996 -1.3938,0.5987 -0.3782,0.3994 -0.5669,0.9383 -0.5669,1.6166 0,0.629 0.1836,1.1554 0.551,1.5792 0.3674,0.424 0.862,0.6361 1.484,0.6361 0.445,0 0.8727,-0.1094 1.2826,-0.3286 v -0.8586 h -1.4417 v -1.4944 h 3.1482 v 3.3812 c -0.3464,0.2755 -0.788,0.498 -1.3249,0.6678 -0.5372,0.1695 -1.0919,0.2543 -1.6642,0.2543 z m 16.249,0 c -1.1237,0 -2.0512,-0.3427 -2.7825,-1.0282 -0.7313,-0.6854 -1.097,-1.6217 -1.097,-2.8088 0,-1.1237 0.3427,-2.0512 1.0281,-2.7825 0.6854,-0.7313 1.6146,-1.097 2.7879,-1.097 0.5581,0 1.1112,0.1165 1.6588,0.3498 0.5477,0.2333 1.0086,0.5652 1.3831,0.9964 l -1.2612,1.0598 c -0.5088,-0.4946 -1.1061,-0.7418 -1.7915,-0.7418 -0.551,0 -1.0156,0.1996 -1.3938,0.5987 -0.3781,0.3994 -0.5669,0.9383 -0.5669,1.6166 0,0.629 0.1837,1.1554 0.5511,1.5792 0.3673,0.424 0.862,0.6361 1.4839,0.6361 0.445,0 0.8728,-0.1094 1.2827,-0.3286 v -0.8586 h -1.4417 v -1.4944 h 3.1481 v 3.3812 c -0.3464,0.2755 -0.788,0.498 -1.3249,0.6678 -0.5372,0.1695 -1.0919,0.2543 -1.6642,0.2543 z m 4.1868,-0.0848 v -7.5257 h 1.7912 v 7.5257 z m 6.7626,0.0955 c -1.0953,0 -2.0157,-0.341 -2.7612,-1.023 -0.7456,-0.682 -1.1183,-1.62 -1.1183,-2.8142 0,-1.1163 0.3464,-2.0438 1.0389,-2.7822 0.6925,-0.7384 1.6393,-1.1078 2.8406,-1.1078 0.5439,0 1.0865,0.1202 1.6271,0.3603 0.5405,0.2404 1.0085,0.6043 1.4042,1.0919 l -1.3036,1.1024 c -0.2049,-0.2475 -0.4575,-0.4541 -0.758,-0.6202 -0.3002,-0.1661 -0.6236,-0.2489 -0.9697,-0.2489 -0.5723,0 -1.0528,0.1995 -1.4414,0.5987 -0.389,0.3994 -0.5831,0.9345 -0.5831,1.6058 0,0.6077 0.1873,1.1166 0.5618,1.5264 0.3745,0.4099 0.862,0.6149 1.4627,0.6149 0.3322,0 0.6519,-0.0797 0.9592,-0.2387 0.3073,-0.159 0.5636,-0.3657 0.7685,-0.6199 l 1.3036,1.1128 c -0.3461,0.4312 -0.7789,0.779 -1.2982,1.044 -0.5196,0.2651 -1.097,0.3977 -1.7331,0.3977 z m 7.4832,0.0105 c -1.1447,0 -2.0776,-0.3622 -2.7984,-1.0865 -0.7206,-0.7242 -1.0811,-1.6517 -1.0811,-2.7825 0,-1.1375 0.3605,-2.0667 1.0811,-2.7876 0.7208,-0.7208 1.6537,-1.0811 2.7984,-1.0811 1.1307,0 2.0562,0.3569 2.7771,1.0706 0.7208,0.7138 1.0811,1.6464 1.0811,2.7981 0,1.1449 -0.3603,2.0758 -1.0811,2.7933 -0.7209,0.7171 -1.6464,1.0757 -2.7771,1.0757 z m 0,-1.6534 c 0.5794,0 1.0598,-0.212 1.4414,-0.6361 0.3818,-0.4241 0.5726,-0.9505 0.5726,-1.5795 0,-0.6358 -0.1908,-1.1642 -0.5726,-1.5845 -0.3816,-0.4204 -0.862,-0.6308 -1.4414,-0.6308 -0.5936,0 -1.0812,0.2121 -1.4627,0.6361 -0.3816,0.4241 -0.5723,0.9505 -0.5723,1.5792 0,0.6219 0.1907,1.1466 0.5723,1.5741 0.3815,0.4278 0.8691,0.6415 1.4627,0.6415 z m -75.697,12.7922 v -7.5257 h 2.6076 c 1.1801,0 2.1251,0.3481 2.8355,1.044 0.7101,0.6962 1.0653,1.6058 1.0653,2.7295 0,1.1236 -0.3447,2.0298 -1.0335,2.7187 -0.6892,0.6891 -1.6342,1.0335 -2.8355,1.0335 z m 1.749,-1.5795 h 0.7739 c 0.6358,0 1.1517,-0.2066 1.5474,-0.6199 0.3957,-0.4133 0.5936,-0.9309 0.5936,-1.5528 0,-0.6291 -0.1908,-1.1518 -0.5724,-1.5687 -0.3815,-0.417 -0.862,-0.6254 -1.4414,-0.6254 h -0.9011 z m 5.798,1.5795 v -7.5257 h 4.9076 v 1.5794 h -3.1691 v 1.4415 h 2.5015 v 1.5582 h -2.5015 v 1.3671 h 3.3919 v 1.5795 z m 6.1582,0 v -7.5257 h 1.7808 v 5.9462 h 3.1589 v 1.5795 z m 12.0096,0.0955 c -1.0953,0 -2.0157,-0.341 -2.7612,-1.023 -0.7456,-0.682 -1.1183,-1.62 -1.1183,-2.8143 0,-1.1162 0.3464,-2.0437 1.0389,-2.7822 0.6925,-0.7384 1.6393,-1.1077 2.8406,-1.1077 0.544,0 1.0865,0.1201 1.6271,0.3602 0.5405,0.2404 1.0085,0.6044 1.4043,1.0919 l -1.3037,1.1024 c -0.2049,-0.2474 -0.4575,-0.4541 -0.758,-0.6202 -0.3002,-0.1661 -0.6236,-0.2489 -0.9697,-0.2489 -0.5723,0 -1.0528,0.1996 -1.4414,0.5987 -0.3889,0.3994 -0.5831,0.9346 -0.5831,1.6058 0,0.6078 0.1874,1.1166 0.5618,1.5265 0.3745,0.4099 0.862,0.6148 1.4627,0.6148 0.3322,0 0.652,-0.0796 0.9592,-0.2386 0.3073,-0.1591 0.5636,-0.3657 0.7685,-0.62 l 1.3037,1.1129 c -0.3462,0.4311 -0.779,0.779 -1.2983,1.044 -0.5196,0.265 -1.097,0.3977 -1.7331,0.3977 z m 8.7976,-0.0955 -0.5017,-1.3462 h -2.7117 l -0.4365,1.3462 h -1.8513 l 2.6376,-7.5257 h 1.8071 l 2.7842,7.5257 z m -2.7241,-2.8514 h 1.6642 l -0.8268,-2.5333 h -0.0213 z m 11.1402,2.8514 h -2.0776 l -1.5474,-2.4273 h -0.6148 v 2.4273 h -1.749 v -7.5257 h 2.9361 c 0.8904,0 1.5616,0.2367 2.014,0.7101 0.4522,0.4736 0.6784,1.1023 0.6784,1.8867 0,1.1166 -0.4663,1.8692 -1.3992,2.2578 v 0.0212 z m -4.2398,-5.9675 v 1.9927 h 0.8161 c 0.3747,0 0.6715,-0.0884 0.8903,-0.265 0.2192,-0.1766 0.3289,-0.4204 0.3289,-0.7313 0,-0.2897 -0.1027,-0.5284 -0.3076,-0.7155 -0.205,-0.1874 -0.4981,-0.2809 -0.8796,-0.2809 z m 5.0879,5.9675 v -7.5257 h 1.7912 v 7.5257 z m 7.3879,-4.0068 c 0.9893,0.2687 1.484,0.9045 1.484,1.908 0,0.629 -0.2067,1.1358 -0.62,1.5211 -0.4136,0.3852 -1.0088,0.5777 -1.7861,0.5777 h -3.3072 v -7.5257 h 2.8409 c 0.8266,0 1.4468,0.159 1.8601,0.477 0.4133,0.3178 0.6202,0.7702 0.6202,1.3567 0,0.8056 -0.3639,1.3604 -1.0919,1.6642 z m -2.4908,-1.9607 v 1.4414 h 0.8374 c 0.2755,0 0.5034,-0.0635 0.6837,-0.1908 0.18,-0.1273 0.2701,-0.3039 0.2701,-0.5301 0,-0.4804 -0.339,-0.7205 -1.0173,-0.7205 z m 1.0177,4.42 c 0.339,0 0.6094,-0.0688 0.8107,-0.2069 0.2015,-0.1378 0.3021,-0.3336 0.3021,-0.5882 0,-0.2401 -0.0935,-0.4328 -0.2809,-0.5777 -0.1873,-0.1448 -0.4646,-0.2171 -0.8319,-0.2171 h -1.0177 v 1.5899 z m 3.9109,1.5475 v -7.5257 h 4.9076 v 1.5794 h -3.1691 v 1.4415 h 2.5016 v 1.5582 h -2.5016 v 1.3671 h 3.3919 v 1.5795 z"
       style="fill:#d7b369;fill-rule:evenodd;filter:url(#filter1058)"
       id="path883-3"
       transform="matrix(0.41098883,0,0,0.41098883,-35.077363,-21.5438)" />
  </g>
</svg>
